<?xml version="1.0" encoding="UTF-8" standalone="no"?>
<!DOCTYPE svg PUBLIC "-//W3C//DTD SVG 1.1//EN"
 "http://www.w3.org/Graphics/SVG/1.1/DTD/svg11.dtd">
<!-- Generated by graphviz version 2.47.0 (20210316.0004)
 -->
<!-- Title: dependencies Pages: 1 -->
<svg width="1172pt" height="284pt"
 viewBox="0.00 0.00 1172.00 284.00" xmlns="http://www.w3.org/2000/svg" xmlns:xlink="http://www.w3.org/1999/xlink">
<g id="graph0" class="graph" transform="scale(1 1) rotate(0) translate(4 280)">
<title>dependencies</title>
<polygon fill="white" stroke="transparent" points="-4,4 -4,-280 1168,-280 1168,4 -4,4"/>
<text text-anchor="start" x="561.01" y="-42.4" font-family="Times-12" font-weight="bold" font-size="14.00">Legend</text>
<polygon fill="#ffffb3" stroke="transparent" points="348,-10 348,-30 368,-30 368,-10 348,-10"/>
<text text-anchor="start" x="371.63" y="-15.4" font-family="Times-12" font-size="14.00"> &#160;Declarations</text>
<polygon fill="#8dd3c7" stroke="transparent" points="461,-10 461,-30 481,-30 481,-10 461,-10"/>
<text text-anchor="start" x="484.73" y="-15.4" font-family="Times-12" font-size="14.00"> &#160;Module</text>
<polygon fill="#80b1d3" stroke="transparent" points="547,-10 547,-30 567,-30 567,-10 547,-10"/>
<text text-anchor="start" x="570.78" y="-15.4" font-family="Times-12" font-size="14.00"> &#160;Bootstrap</text>
<polygon fill="#fdb462" stroke="transparent" points="644,-10 644,-30 664,-30 664,-10 644,-10"/>
<text text-anchor="start" x="667.67" y="-15.4" font-family="Times-12" font-size="14.00"> &#160;Providers</text>
<polygon fill="#fb8072" stroke="transparent" points="740,-10 740,-30 760,-30 760,-10 740,-10"/>
<text text-anchor="start" x="763.73" y="-15.4" font-family="Times-12" font-size="14.00"> &#160;Exports</text>
<g id="clust1" class="cluster">
<title>cluster_UserModule</title>
<polygon fill="none" stroke="black" stroke-dasharray="1,5" points="8,-70 8,-268 1156,-268 1156,-70 8,-70"/>
</g>
<g id="clust3" class="cluster">
<title>cluster_UserModule_imports</title>
<polygon fill="none" stroke="black" points="1046,-78 1046,-130 1148,-130 1148,-78 1046,-78"/>
</g>
<g id="clust6" class="cluster">
<title>cluster_UserModule_providers</title>
<polygon fill="none" stroke="black" points="16,-78 16,-130 1038,-130 1038,-78 16,-78"/>
</g>
<g id="clust4" class="cluster">
<title>cluster_UserModule_exports</title>
<polygon fill="none" stroke="black" points="547,-208 547,-260 651,-260 651,-208 547,-208"/>
</g>
<!-- MailModule -->
<g id="node1" class="node">
<title>MailModule</title>
<polygon fill="#8dd3c7" stroke="black" points="1139.99,-122 1136.99,-126 1115.99,-126 1112.99,-122 1054.01,-122 1054.01,-86 1139.99,-86 1139.99,-122"/>
<text text-anchor="middle" x="1097" y="-99.8" font-family="Times,serif" font-size="14.00">MailModule</text>
</g>
<!-- UserModule -->
<g id="node2" class="node">
<title>UserModule</title>
<polygon fill="#8dd3c7" stroke="black" points="641.98,-187 638.98,-191 617.98,-191 614.98,-187 556.02,-187 556.02,-151 641.98,-151 641.98,-187"/>
<text text-anchor="middle" x="599" y="-164.8" font-family="Times,serif" font-size="14.00">UserModule</text>
</g>
<!-- MailModule&#45;&gt;UserModule -->
<g id="edge1" class="edge">
<title>MailModule&#45;&gt;UserModule</title>
<path fill="none" stroke="black" d="M1097,-122.28C1097,-143.32 1097,-175 1097,-175 1097,-175 652.32,-175 652.32,-175"/>
<polygon fill="black" stroke="black" points="652.32,-171.5 642.32,-175 652.32,-178.5 652.32,-171.5"/>
</g>
<!-- UserService  -->
<g id="node3" class="node">
<title>UserService </title>
<polygon fill="#fb8072" stroke="black" points="642.9,-252 555.1,-252 555.1,-216 642.9,-216 642.9,-252"/>
<text text-anchor="middle" x="599" y="-229.8" font-family="Times,serif" font-size="14.00">UserService </text>
</g>
<!-- UserModule&#45;&gt;UserService  -->
<g id="edge2" class="edge">
<title>UserModule&#45;&gt;UserService </title>
<path fill="none" stroke="black" stroke-dasharray="5,2" d="M599,-187.11C599,-187.11 599,-205.99 599,-205.99"/>
<polygon fill="black" stroke="black" points="595.5,-205.99 599,-215.99 602.5,-205.99 595.5,-205.99"/>
</g>
<!-- CreateGoogleUserProvider -->
<g id="node4" class="node">
<title>CreateGoogleUserProvider</title>
<ellipse fill="#fdb462" stroke="black" cx="914" cy="-104" rx="116.29" ry="18"/>
<text text-anchor="middle" x="914" y="-99.8" font-family="Times,serif" font-size="14.00">CreateGoogleUserProvider</text>
</g>
<!-- CreateGoogleUserProvider&#45;&gt;UserModule -->
<g id="edge3" class="edge">
<title>CreateGoogleUserProvider&#45;&gt;UserModule</title>
<path fill="none" stroke="black" d="M914,-122.02C914,-139.37 914,-163 914,-163 914,-163 652.14,-163 652.14,-163"/>
<polygon fill="black" stroke="black" points="652.14,-159.5 642.14,-163 652.14,-166.5 652.14,-159.5"/>
</g>
<!-- CreateUserProvider -->
<g id="node5" class="node">
<title>CreateUserProvider</title>
<ellipse fill="#fdb462" stroke="black" cx="692" cy="-104" rx="87.94" ry="18"/>
<text text-anchor="middle" x="692" y="-99.8" font-family="Times,serif" font-size="14.00">CreateUserProvider</text>
</g>
<!-- CreateUserProvider&#45;&gt;UserModule -->
<g id="edge4" class="edge">
<title>CreateUserProvider&#45;&gt;UserModule</title>
<path fill="none" stroke="black" d="M623.14,-115.32C623.14,-115.32 623.14,-140.94 623.14,-140.94"/>
<polygon fill="black" stroke="black" points="619.64,-140.94 623.14,-150.94 626.64,-140.94 619.64,-140.94"/>
</g>
<!-- FindOneByEmail -->
<g id="node6" class="node">
<title>FindOneByEmail</title>
<ellipse fill="#fdb462" stroke="black" cx="507" cy="-104" rx="79.33" ry="18"/>
<text text-anchor="middle" x="507" y="-99.8" font-family="Times,serif" font-size="14.00">FindOneByEmail</text>
</g>
<!-- FindOneByEmail&#45;&gt;UserModule -->
<g id="edge5" class="edge">
<title>FindOneByEmail&#45;&gt;UserModule</title>
<path fill="none" stroke="black" d="M571.09,-114.73C571.09,-114.73 571.09,-140.87 571.09,-140.87"/>
<polygon fill="black" stroke="black" points="567.59,-140.87 571.09,-150.87 574.59,-140.87 567.59,-140.87"/>
</g>
<!-- FindOneByGoogleIdProvider -->
<g id="node7" class="node">
<title>FindOneByGoogleIdProvider</title>
<ellipse fill="#fdb462" stroke="black" cx="284" cy="-104" rx="125.65" ry="18"/>
<text text-anchor="middle" x="284" y="-99.8" font-family="Times,serif" font-size="14.00">FindOneByGoogleIdProvider</text>
</g>
<!-- FindOneByGoogleIdProvider&#45;&gt;UserModule -->
<g id="edge6" class="edge">
<title>FindOneByGoogleIdProvider&#45;&gt;UserModule</title>
<path fill="none" stroke="black" d="M284,-122.02C284,-139.37 284,-163 284,-163 284,-163 545.86,-163 545.86,-163"/>
<polygon fill="black" stroke="black" points="545.86,-166.5 555.86,-163 545.86,-159.5 545.86,-166.5"/>
</g>
<!-- UserService -->
<g id="node8" class="node">
<title>UserService</title>
<ellipse fill="#fdb462" stroke="black" cx="82" cy="-104" rx="58.44" ry="18"/>
<text text-anchor="middle" x="82" y="-99.8" font-family="Times,serif" font-size="14.00">UserService</text>
</g>
<!-- UserService&#45;&gt;UserModule -->
<g id="edge7" class="edge">
<title>UserService&#45;&gt;UserModule</title>
<path fill="none" stroke="black" d="M82,-122.28C82,-143.32 82,-175 82,-175 82,-175 545.81,-175 545.81,-175"/>
<polygon fill="black" stroke="black" points="545.81,-178.5 555.81,-175 545.81,-171.5 545.81,-178.5"/>
</g>
</g>
</svg>
