<?xml version="1.0" encoding="UTF-8" standalone="no"?>
<!DOCTYPE svg PUBLIC "-//W3C//DTD SVG 1.1//EN"
 "http://www.w3.org/Graphics/SVG/1.1/DTD/svg11.dtd">
<!-- Generated by graphviz version 2.47.0 (20210316.0004)
 -->
<!-- Title: dependencies Pages: 1 -->
<svg width="1361pt" height="284pt"
 viewBox="0.00 0.00 1361.00 284.00" xmlns="http://www.w3.org/2000/svg" xmlns:xlink="http://www.w3.org/1999/xlink">
<g id="graph0" class="graph" transform="scale(1 1) rotate(0) translate(4 280)">
<title>dependencies</title>
<polygon fill="white" stroke="transparent" points="-4,4 -4,-280 1357,-280 1357,4 -4,4"/>
<text text-anchor="start" x="655.51" y="-42.4" font-family="Times-12" font-weight="bold" font-size="14.00">Legend</text>
<polygon fill="#ffffb3" stroke="transparent" points="442.5,-10 442.5,-30 462.5,-30 462.5,-10 442.5,-10"/>
<text text-anchor="start" x="466.13" y="-15.4" font-family="Times-12" font-size="14.00"> &#160;Declarations</text>
<polygon fill="#8dd3c7" stroke="transparent" points="555.5,-10 555.5,-30 575.5,-30 575.5,-10 555.5,-10"/>
<text text-anchor="start" x="579.23" y="-15.4" font-family="Times-12" font-size="14.00"> &#160;Module</text>
<polygon fill="#80b1d3" stroke="transparent" points="641.5,-10 641.5,-30 661.5,-30 661.5,-10 641.5,-10"/>
<text text-anchor="start" x="665.28" y="-15.4" font-family="Times-12" font-size="14.00"> &#160;Bootstrap</text>
<polygon fill="#fdb462" stroke="transparent" points="738.5,-10 738.5,-30 758.5,-30 758.5,-10 738.5,-10"/>
<text text-anchor="start" x="762.17" y="-15.4" font-family="Times-12" font-size="14.00"> &#160;Providers</text>
<polygon fill="#fb8072" stroke="transparent" points="834.5,-10 834.5,-30 854.5,-30 854.5,-10 834.5,-10"/>
<text text-anchor="start" x="858.23" y="-15.4" font-family="Times-12" font-size="14.00"> &#160;Exports</text>
<g id="clust1" class="cluster">
<title>cluster_UserModule</title>
<polygon fill="none" stroke="black" stroke-dasharray="1,5" points="8,-70 8,-268 1345,-268 1345,-70 8,-70"/>
</g>
<g id="clust4" class="cluster">
<title>cluster_UserModule_exports</title>
<polygon fill="none" stroke="black" points="531,-208 531,-260 635,-260 635,-208 531,-208"/>
</g>
<g id="clust6" class="cluster">
<title>cluster_UserModule_providers</title>
<polygon fill="none" stroke="black" points="126,-78 126,-130 1337,-130 1337,-78 126,-78"/>
</g>
<g id="clust3" class="cluster">
<title>cluster_UserModule_imports</title>
<polygon fill="none" stroke="black" points="16,-78 16,-130 118,-130 118,-78 16,-78"/>
</g>
<!-- MailModule -->
<g id="node1" class="node">
<title>MailModule</title>
<polygon fill="#8dd3c7" stroke="black" points="109.99,-122 106.99,-126 85.99,-126 82.99,-122 24.01,-122 24.01,-86 109.99,-86 109.99,-122"/>
<text text-anchor="middle" x="67" y="-99.8" font-family="Times,serif" font-size="14.00">MailModule</text>
</g>
<!-- UserModule -->
<g id="node2" class="node">
<title>UserModule</title>
<polygon fill="#8dd3c7" stroke="black" points="625.98,-187 622.98,-191 601.98,-191 598.98,-187 540.02,-187 540.02,-151 625.98,-151 625.98,-187"/>
<text text-anchor="middle" x="583" y="-164.8" font-family="Times,serif" font-size="14.00">UserModule</text>
</g>
<!-- MailModule&#45;&gt;UserModule -->
<g id="edge1" class="edge">
<title>MailModule&#45;&gt;UserModule</title>
<path fill="none" stroke="black" d="M67,-122.29C67,-144.21 67,-178 67,-178 67,-178 529.89,-178 529.89,-178"/>
<polygon fill="black" stroke="black" points="529.89,-181.5 539.89,-178 529.89,-174.5 529.89,-181.5"/>
</g>
<!-- UserService  -->
<g id="node3" class="node">
<title>UserService </title>
<polygon fill="#fb8072" stroke="black" points="626.9,-252 539.1,-252 539.1,-216 626.9,-216 626.9,-252"/>
<text text-anchor="middle" x="583" y="-229.8" font-family="Times,serif" font-size="14.00">UserService </text>
</g>
<!-- UserModule&#45;&gt;UserService  -->
<g id="edge2" class="edge">
<title>UserModule&#45;&gt;UserService </title>
<path fill="none" stroke="black" stroke-dasharray="5,2" d="M583,-187.11C583,-187.11 583,-205.99 583,-205.99"/>
<polygon fill="black" stroke="black" points="579.5,-205.99 583,-215.99 586.5,-205.99 579.5,-205.99"/>
</g>
<!-- CreateGoogleUserProvider -->
<g id="node4" class="node">
<title>CreateGoogleUserProvider</title>
<ellipse fill="#fdb462" stroke="black" cx="1213" cy="-104" rx="116.29" ry="18"/>
<text text-anchor="middle" x="1213" y="-99.8" font-family="Times,serif" font-size="14.00">CreateGoogleUserProvider</text>
</g>
<!-- CreateGoogleUserProvider&#45;&gt;UserModule -->
<g id="edge3" class="edge">
<title>CreateGoogleUserProvider&#45;&gt;UserModule</title>
<path fill="none" stroke="black" d="M1213,-122.29C1213,-144.21 1213,-178 1213,-178 1213,-178 636.3,-178 636.3,-178"/>
<polygon fill="black" stroke="black" points="636.3,-174.5 626.3,-178 636.3,-181.5 636.3,-174.5"/>
</g>
<!-- CreateUserProvider -->
<g id="node5" class="node">
<title>CreateUserProvider</title>
<ellipse fill="#fdb462" stroke="black" cx="991" cy="-104" rx="87.94" ry="18"/>
<text text-anchor="middle" x="991" y="-99.8" font-family="Times,serif" font-size="14.00">CreateUserProvider</text>
</g>
<!-- CreateUserProvider&#45;&gt;UserModule -->
<g id="edge4" class="edge">
<title>CreateUserProvider&#45;&gt;UserModule</title>
<path fill="none" stroke="black" d="M991,-122.11C991,-141.34 991,-169 991,-169 991,-169 636.28,-169 636.28,-169"/>
<polygon fill="black" stroke="black" points="636.28,-165.5 626.28,-169 636.28,-172.5 636.28,-165.5"/>
</g>
<!-- FindOneByEmail -->
<g id="node6" class="node">
<title>FindOneByEmail</title>
<ellipse fill="#fdb462" stroke="black" cx="806" cy="-104" rx="79.33" ry="18"/>
<text text-anchor="middle" x="806" y="-99.8" font-family="Times,serif" font-size="14.00">FindOneByEmail</text>
</g>
<!-- FindOneByEmail&#45;&gt;UserModule -->
<g id="edge5" class="edge">
<title>FindOneByEmail&#45;&gt;UserModule</title>
<path fill="none" stroke="black" d="M806,-122.03C806,-138.4 806,-160 806,-160 806,-160 636,-160 636,-160"/>
<polygon fill="black" stroke="black" points="636,-156.5 626,-160 636,-163.5 636,-156.5"/>
</g>
<!-- FindOneByGoogleIdProvider -->
<g id="node7" class="node">
<title>FindOneByGoogleIdProvider</title>
<ellipse fill="#fdb462" stroke="black" cx="583" cy="-104" rx="125.65" ry="18"/>
<text text-anchor="middle" x="583" y="-99.8" font-family="Times,serif" font-size="14.00">FindOneByGoogleIdProvider</text>
</g>
<!-- FindOneByGoogleIdProvider&#45;&gt;UserModule -->
<g id="edge6" class="edge">
<title>FindOneByGoogleIdProvider&#45;&gt;UserModule</title>
<path fill="none" stroke="black" d="M583,-122.11C583,-122.11 583,-140.99 583,-140.99"/>
<polygon fill="black" stroke="black" points="579.5,-140.99 583,-150.99 586.5,-140.99 579.5,-140.99"/>
</g>
<!-- PaginationProvider -->
<g id="node8" class="node">
<title>PaginationProvider</title>
<ellipse fill="#fdb462" stroke="black" cx="354" cy="-104" rx="85.69" ry="18"/>
<text text-anchor="middle" x="354" y="-99.8" font-family="Times,serif" font-size="14.00">PaginationProvider</text>
</g>
<!-- PaginationProvider&#45;&gt;UserModule -->
<g id="edge7" class="edge">
<title>PaginationProvider&#45;&gt;UserModule</title>
<path fill="none" stroke="black" d="M354,-122.03C354,-138.4 354,-160 354,-160 354,-160 529.93,-160 529.93,-160"/>
<polygon fill="black" stroke="black" points="529.93,-163.5 539.93,-160 529.93,-156.5 529.93,-163.5"/>
</g>
<!-- UserService -->
<g id="node9" class="node">
<title>UserService</title>
<ellipse fill="#fdb462" stroke="black" cx="192" cy="-104" rx="58.44" ry="18"/>
<text text-anchor="middle" x="192" y="-99.8" font-family="Times,serif" font-size="14.00">UserService</text>
</g>
<!-- UserService&#45;&gt;UserModule -->
<g id="edge8" class="edge">
<title>UserService&#45;&gt;UserModule</title>
<path fill="none" stroke="black" d="M192,-122.11C192,-141.34 192,-169 192,-169 192,-169 529.66,-169 529.66,-169"/>
<polygon fill="black" stroke="black" points="529.66,-172.5 539.66,-169 529.66,-165.5 529.66,-172.5"/>
</g>
</g>
</svg>
