<?xml version="1.0" encoding="UTF-8" standalone="no"?>
<!DOCTYPE svg PUBLIC "-//W3C//DTD SVG 1.1//EN"
 "http://www.w3.org/Graphics/SVG/1.1/DTD/svg11.dtd">
<!-- Generated by graphviz version 2.47.0 (20210316.0004)
 -->
<!-- Title: dependencies Pages: 1 -->
<svg width="1172pt" height="284pt"
 viewBox="0.00 0.00 1172.00 284.00" xmlns="http://www.w3.org/2000/svg" xmlns:xlink="http://www.w3.org/1999/xlink">
<g id="graph0" class="graph" transform="scale(1 1) rotate(0) translate(4 280)">
<title>dependencies</title>
<polygon fill="white" stroke="transparent" points="-4,4 -4,-280 1168,-280 1168,4 -4,4"/>
<text text-anchor="start" x="561.01" y="-42.4" font-family="Times-12" font-weight="bold" font-size="14.00">Legend</text>
<polygon fill="#ffffb3" stroke="transparent" points="348,-10 348,-30 368,-30 368,-10 348,-10"/>
<text text-anchor="start" x="371.63" y="-15.4" font-family="Times-12" font-size="14.00"> &#160;Declarations</text>
<polygon fill="#8dd3c7" stroke="transparent" points="461,-10 461,-30 481,-30 481,-10 461,-10"/>
<text text-anchor="start" x="484.73" y="-15.4" font-family="Times-12" font-size="14.00"> &#160;Module</text>
<polygon fill="#80b1d3" stroke="transparent" points="547,-10 547,-30 567,-30 567,-10 547,-10"/>
<text text-anchor="start" x="570.78" y="-15.4" font-family="Times-12" font-size="14.00"> &#160;Bootstrap</text>
<polygon fill="#fdb462" stroke="transparent" points="644,-10 644,-30 664,-30 664,-10 644,-10"/>
<text text-anchor="start" x="667.67" y="-15.4" font-family="Times-12" font-size="14.00"> &#160;Providers</text>
<polygon fill="#fb8072" stroke="transparent" points="740,-10 740,-30 760,-30 760,-10 740,-10"/>
<text text-anchor="start" x="763.73" y="-15.4" font-family="Times-12" font-size="14.00"> &#160;Exports</text>
<g id="clust1" class="cluster">
<title>cluster_UserModule</title>
<polygon fill="none" stroke="black" stroke-dasharray="1,5" points="8,-70 8,-268 1156,-268 1156,-70 8,-70"/>
</g>
<g id="clust4" class="cluster">
<title>cluster_UserModule_exports</title>
<polygon fill="none" stroke="black" points="453,-208 453,-260 557,-260 557,-208 453,-208"/>
</g>
<g id="clust6" class="cluster">
<title>cluster_UserModule_providers</title>
<polygon fill="none" stroke="black" points="126,-78 126,-130 1148,-130 1148,-78 126,-78"/>
</g>
<g id="clust3" class="cluster">
<title>cluster_UserModule_imports</title>
<polygon fill="none" stroke="black" points="16,-78 16,-130 118,-130 118,-78 16,-78"/>
</g>
<!-- MailModule -->
<g id="node1" class="node">
<title>MailModule</title>
<polygon fill="#8dd3c7" stroke="black" points="109.99,-122 106.99,-126 85.99,-126 82.99,-122 24.01,-122 24.01,-86 109.99,-86 109.99,-122"/>
<text text-anchor="middle" x="67" y="-99.8" font-family="Times,serif" font-size="14.00">MailModule</text>
</g>
<!-- UserModule -->
<g id="node2" class="node">
<title>UserModule</title>
<polygon fill="#8dd3c7" stroke="black" points="547.98,-187 544.98,-191 523.98,-191 520.98,-187 462.02,-187 462.02,-151 547.98,-151 547.98,-187"/>
<text text-anchor="middle" x="505" y="-164.8" font-family="Times,serif" font-size="14.00">UserModule</text>
</g>
<!-- MailModule&#45;&gt;UserModule -->
<g id="edge1" class="edge">
<title>MailModule&#45;&gt;UserModule</title>
<path fill="none" stroke="black" d="M67,-122.28C67,-143.32 67,-175 67,-175 67,-175 451.8,-175 451.8,-175"/>
<polygon fill="black" stroke="black" points="451.8,-178.5 461.8,-175 451.8,-171.5 451.8,-178.5"/>
</g>
<!-- UserService  -->
<g id="node3" class="node">
<title>UserService </title>
<polygon fill="#fb8072" stroke="black" points="548.9,-252 461.1,-252 461.1,-216 548.9,-216 548.9,-252"/>
<text text-anchor="middle" x="505" y="-229.8" font-family="Times,serif" font-size="14.00">UserService </text>
</g>
<!-- UserModule&#45;&gt;UserService  -->
<g id="edge2" class="edge">
<title>UserModule&#45;&gt;UserService </title>
<path fill="none" stroke="black" stroke-dasharray="5,2" d="M505,-187.11C505,-187.11 505,-205.99 505,-205.99"/>
<polygon fill="black" stroke="black" points="501.5,-205.99 505,-215.99 508.5,-205.99 501.5,-205.99"/>
</g>
<!-- CreateGoogleUserProvider -->
<g id="node4" class="node">
<title>CreateGoogleUserProvider</title>
<ellipse fill="#fdb462" stroke="black" cx="1024" cy="-104" rx="116.29" ry="18"/>
<text text-anchor="middle" x="1024" y="-99.8" font-family="Times,serif" font-size="14.00">CreateGoogleUserProvider</text>
</g>
<!-- CreateGoogleUserProvider&#45;&gt;UserModule -->
<g id="edge3" class="edge">
<title>CreateGoogleUserProvider&#45;&gt;UserModule</title>
<path fill="none" stroke="black" d="M1024,-122.28C1024,-143.32 1024,-175 1024,-175 1024,-175 558.36,-175 558.36,-175"/>
<polygon fill="black" stroke="black" points="558.36,-171.5 548.36,-175 558.36,-178.5 558.36,-171.5"/>
</g>
<!-- CreateUserProvider -->
<g id="node5" class="node">
<title>CreateUserProvider</title>
<ellipse fill="#fdb462" stroke="black" cx="802" cy="-104" rx="87.94" ry="18"/>
<text text-anchor="middle" x="802" y="-99.8" font-family="Times,serif" font-size="14.00">CreateUserProvider</text>
</g>
<!-- CreateUserProvider&#45;&gt;UserModule -->
<g id="edge4" class="edge">
<title>CreateUserProvider&#45;&gt;UserModule</title>
<path fill="none" stroke="black" d="M802,-122.02C802,-139.37 802,-163 802,-163 802,-163 558.19,-163 558.19,-163"/>
<polygon fill="black" stroke="black" points="558.19,-159.5 548.19,-163 558.19,-166.5 558.19,-159.5"/>
</g>
<!-- FindOneByEmail -->
<g id="node6" class="node">
<title>FindOneByEmail</title>
<ellipse fill="#fdb462" stroke="black" cx="617" cy="-104" rx="79.33" ry="18"/>
<text text-anchor="middle" x="617" y="-99.8" font-family="Times,serif" font-size="14.00">FindOneByEmail</text>
</g>
<!-- FindOneByEmail&#45;&gt;UserModule -->
<g id="edge5" class="edge">
<title>FindOneByEmail&#45;&gt;UserModule</title>
<path fill="none" stroke="black" d="M542.91,-110.47C542.91,-110.47 542.91,-140.78 542.91,-140.78"/>
<polygon fill="black" stroke="black" points="539.41,-140.78 542.91,-150.78 546.41,-140.78 539.41,-140.78"/>
</g>
<!-- FindOneByGoogleIdProvider -->
<g id="node7" class="node">
<title>FindOneByGoogleIdProvider</title>
<ellipse fill="#fdb462" stroke="black" cx="394" cy="-104" rx="125.65" ry="18"/>
<text text-anchor="middle" x="394" y="-99.8" font-family="Times,serif" font-size="14.00">FindOneByGoogleIdProvider</text>
</g>
<!-- FindOneByGoogleIdProvider&#45;&gt;UserModule -->
<g id="edge6" class="edge">
<title>FindOneByGoogleIdProvider&#45;&gt;UserModule</title>
<path fill="none" stroke="black" d="M490.92,-115.62C490.92,-115.62 490.92,-140.85 490.92,-140.85"/>
<polygon fill="black" stroke="black" points="487.42,-140.85 490.92,-150.85 494.42,-140.85 487.42,-140.85"/>
</g>
<!-- UserService -->
<g id="node8" class="node">
<title>UserService</title>
<ellipse fill="#fdb462" stroke="black" cx="192" cy="-104" rx="58.44" ry="18"/>
<text text-anchor="middle" x="192" y="-99.8" font-family="Times,serif" font-size="14.00">UserService</text>
</g>
<!-- UserService&#45;&gt;UserModule -->
<g id="edge7" class="edge">
<title>UserService&#45;&gt;UserModule</title>
<path fill="none" stroke="black" d="M192,-122.02C192,-139.37 192,-163 192,-163 192,-163 451.81,-163 451.81,-163"/>
<polygon fill="black" stroke="black" points="451.81,-166.5 461.81,-163 451.81,-159.5 451.81,-166.5"/>
</g>
</g>
</svg>
