<?xml version="1.0" encoding="UTF-8" standalone="no"?>
<!DOCTYPE svg PUBLIC "-//W3C//DTD SVG 1.1//EN"
 "http://www.w3.org/Graphics/SVG/1.1/DTD/svg11.dtd">
<!-- Generated by graphviz version 2.47.0 (20210316.0004)
 -->
<!-- Title: dependencies Pages: 1 -->
<svg width="1085pt" height="211pt"
 viewBox="0.00 0.00 1085.00 211.00" xmlns="http://www.w3.org/2000/svg" xmlns:xlink="http://www.w3.org/1999/xlink">
<g id="graph0" class="graph" transform="scale(1 1) rotate(0) translate(4 207)">
<title>dependencies</title>
<polygon fill="white" stroke="transparent" points="-4,4 -4,-207 1081,-207 1081,4 -4,4"/>
<text text-anchor="start" x="517.51" y="-42.4" font-family="Times-12" font-weight="bold" font-size="14.00">Legend</text>
<polygon fill="#ffffb3" stroke="transparent" points="304.5,-10 304.5,-30 324.5,-30 324.5,-10 304.5,-10"/>
<text text-anchor="start" x="328.13" y="-15.4" font-family="Times-12" font-size="14.00"> &#160;Declarations</text>
<polygon fill="#8dd3c7" stroke="transparent" points="417.5,-10 417.5,-30 437.5,-30 437.5,-10 417.5,-10"/>
<text text-anchor="start" x="441.23" y="-15.4" font-family="Times-12" font-size="14.00"> &#160;Module</text>
<polygon fill="#80b1d3" stroke="transparent" points="503.5,-10 503.5,-30 523.5,-30 523.5,-10 503.5,-10"/>
<text text-anchor="start" x="527.28" y="-15.4" font-family="Times-12" font-size="14.00"> &#160;Bootstrap</text>
<polygon fill="#fdb462" stroke="transparent" points="600.5,-10 600.5,-30 620.5,-30 620.5,-10 600.5,-10"/>
<text text-anchor="start" x="624.17" y="-15.4" font-family="Times-12" font-size="14.00"> &#160;Providers</text>
<polygon fill="#fb8072" stroke="transparent" points="696.5,-10 696.5,-30 716.5,-30 716.5,-10 696.5,-10"/>
<text text-anchor="start" x="720.23" y="-15.4" font-family="Times-12" font-size="14.00"> &#160;Exports</text>
<g id="clust1" class="cluster">
<title>cluster_AppModule</title>
<polygon fill="none" stroke="black" stroke-dasharray="1,5" points="8,-70 8,-195 1069,-195 1069,-70 8,-70"/>
</g>
<g id="clust3" class="cluster">
<title>cluster_AppModule_imports</title>
<polygon fill="none" stroke="black" points="343,-78 343,-130 1061,-130 1061,-78 343,-78"/>
</g>
<g id="clust6" class="cluster">
<title>cluster_AppModule_providers</title>
<polygon fill="none" stroke="black" points="16,-78 16,-130 335,-130 335,-78 16,-78"/>
</g>
<!-- AuthModule -->
<g id="node1" class="node">
<title>AuthModule</title>
<polygon fill="#8dd3c7" stroke="black" points="1052.55,-122 1049.55,-126 1028.55,-126 1025.55,-122 965.45,-122 965.45,-86 1052.55,-86 1052.55,-122"/>
<text text-anchor="middle" x="1009" y="-99.8" font-family="Times,serif" font-size="14.00">AuthModule</text>
</g>
<!-- AppModule -->
<g id="node7" class="node">
<title>AppModule</title>
<polygon fill="#8dd3c7" stroke="black" points="698.66,-187 695.66,-191 674.66,-191 671.66,-187 615.34,-187 615.34,-151 698.66,-151 698.66,-187"/>
<text text-anchor="middle" x="657" y="-164.8" font-family="Times,serif" font-size="14.00">AppModule</text>
</g>
<!-- AuthModule&#45;&gt;AppModule -->
<g id="edge1" class="edge">
<title>AuthModule&#45;&gt;AppModule</title>
<path fill="none" stroke="black" d="M1009,-122.01C1009,-144.49 1009,-180 1009,-180 1009,-180 708.76,-180 708.76,-180"/>
<polygon fill="black" stroke="black" points="708.76,-176.5 698.76,-180 708.76,-183.5 708.76,-176.5"/>
</g>
<!-- ChatModule -->
<g id="node2" class="node">
<title>ChatModule</title>
<polygon fill="#8dd3c7" stroke="black" points="946.99,-122 943.99,-126 922.99,-126 919.99,-122 861.01,-122 861.01,-86 946.99,-86 946.99,-122"/>
<text text-anchor="middle" x="904" y="-99.8" font-family="Times,serif" font-size="14.00">ChatModule</text>
</g>
<!-- ChatModule&#45;&gt;AppModule -->
<g id="edge2" class="edge">
<title>ChatModule&#45;&gt;AppModule</title>
<path fill="none" stroke="black" d="M889.67,-122.27C889.67,-140.56 889.67,-166 889.67,-166 889.67,-166 708.87,-166 708.87,-166"/>
<polygon fill="black" stroke="black" points="708.87,-162.5 698.87,-166 708.87,-169.5 708.87,-162.5"/>
</g>
<!-- ChatModule&#45;&gt;AppModule -->
<g id="edge3" class="edge">
<title>ChatModule&#45;&gt;AppModule</title>
<path fill="none" stroke="black" d="M918.33,-122.13C918.33,-142.57 918.33,-173 918.33,-173 918.33,-173 708.7,-173 708.7,-173"/>
<polygon fill="black" stroke="black" points="708.7,-169.5 698.7,-173 708.7,-176.5 708.7,-169.5"/>
</g>
<!-- MessageModule -->
<g id="node3" class="node">
<title>MessageModule</title>
<polygon fill="#8dd3c7" stroke="black" points="843.03,-122 840.03,-126 819.03,-126 816.03,-122 734.97,-122 734.97,-86 843.03,-86 843.03,-122"/>
<text text-anchor="middle" x="789" y="-99.8" font-family="Times,serif" font-size="14.00">MessageModule</text>
</g>
<!-- MessageModule&#45;&gt;AppModule -->
<g id="edge4" class="edge">
<title>MessageModule&#45;&gt;AppModule</title>
<path fill="none" stroke="black" d="M789,-122.01C789,-138.05 789,-159 789,-159 789,-159 708.77,-159 708.77,-159"/>
<polygon fill="black" stroke="black" points="708.77,-155.5 698.77,-159 708.77,-162.5 708.77,-155.5"/>
</g>
<!-- PaginationModule -->
<g id="node4" class="node">
<title>PaginationModule</title>
<polygon fill="#8dd3c7" stroke="black" points="716.93,-122 713.93,-126 692.93,-126 689.93,-122 597.07,-122 597.07,-86 716.93,-86 716.93,-122"/>
<text text-anchor="middle" x="657" y="-99.8" font-family="Times,serif" font-size="14.00">PaginationModule</text>
</g>
<!-- PaginationModule&#45;&gt;AppModule -->
<g id="edge5" class="edge">
<title>PaginationModule&#45;&gt;AppModule</title>
<path fill="none" stroke="black" d="M657,-122.11C657,-122.11 657,-140.99 657,-140.99"/>
<polygon fill="black" stroke="black" points="653.5,-140.99 657,-150.99 660.5,-140.99 653.5,-140.99"/>
</g>
<!-- UserModule -->
<g id="node5" class="node">
<title>UserModule</title>
<polygon fill="#8dd3c7" stroke="black" points="578.98,-122 575.98,-126 554.98,-126 551.98,-122 493.02,-122 493.02,-86 578.98,-86 578.98,-122"/>
<text text-anchor="middle" x="536" y="-99.8" font-family="Times,serif" font-size="14.00">UserModule</text>
</g>
<!-- UserModule&#45;&gt;AppModule -->
<g id="edge6" class="edge">
<title>UserModule&#45;&gt;AppModule</title>
<path fill="none" stroke="black" d="M536,-122.01C536,-138.05 536,-159 536,-159 536,-159 605.02,-159 605.02,-159"/>
<polygon fill="black" stroke="black" points="605.02,-162.5 615.02,-159 605.02,-155.5 605.02,-162.5"/>
</g>
<!-- WebSocketModule -->
<g id="node6" class="node">
<title>WebSocketModule</title>
<polygon fill="#8dd3c7" stroke="black" points="475.08,-122 472.08,-126 451.08,-126 448.08,-122 350.92,-122 350.92,-86 475.08,-86 475.08,-122"/>
<text text-anchor="middle" x="413" y="-99.8" font-family="Times,serif" font-size="14.00">WebSocketModule</text>
</g>
<!-- WebSocketModule&#45;&gt;AppModule -->
<g id="edge7" class="edge">
<title>WebSocketModule&#45;&gt;AppModule</title>
<path fill="none" stroke="black" d="M413,-122.27C413,-140.56 413,-166 413,-166 413,-166 605.33,-166 605.33,-166"/>
<polygon fill="black" stroke="black" points="605.33,-169.5 615.33,-166 605.33,-162.5 605.33,-169.5"/>
</g>
<!-- AppService -->
<g id="node8" class="node">
<title>AppService</title>
<ellipse fill="#fdb462" stroke="black" cx="270" cy="-104" rx="56.74" ry="18"/>
<text text-anchor="middle" x="270" y="-99.8" font-family="Times,serif" font-size="14.00">AppService</text>
</g>
<!-- AppService&#45;&gt;AppModule -->
<g id="edge8" class="edge">
<title>AppService&#45;&gt;AppModule</title>
<path fill="none" stroke="black" d="M270,-122.13C270,-142.57 270,-173 270,-173 270,-173 605.22,-173 605.22,-173"/>
<polygon fill="black" stroke="black" points="605.22,-176.5 615.22,-173 605.22,-169.5 605.22,-176.5"/>
</g>
<!-- PaginationProvider -->
<g id="node9" class="node">
<title>PaginationProvider</title>
<ellipse fill="#fdb462" stroke="black" cx="110" cy="-104" rx="85.69" ry="18"/>
<text text-anchor="middle" x="110" y="-99.8" font-family="Times,serif" font-size="14.00">PaginationProvider</text>
</g>
<!-- PaginationProvider&#45;&gt;AppModule -->
<g id="edge9" class="edge">
<title>PaginationProvider&#45;&gt;AppModule</title>
<path fill="none" stroke="black" d="M110,-122.01C110,-144.49 110,-180 110,-180 110,-180 604.99,-180 604.99,-180"/>
<polygon fill="black" stroke="black" points="604.99,-183.5 614.99,-180 604.99,-176.5 604.99,-183.5"/>
</g>
</g>
</svg>
