<?xml version="1.0" encoding="UTF-8" standalone="no"?>
<!DOCTYPE svg PUBLIC "-//W3C//DTD SVG 1.1//EN"
 "http://www.w3.org/Graphics/SVG/1.1/DTD/svg11.dtd">
<!-- Generated by graphviz version 2.47.0 (20210316.0004)
 -->
<!-- Title: dependencies Pages: 1 -->
<svg width="896pt" height="211pt"
 viewBox="0.00 0.00 896.00 211.00" xmlns="http://www.w3.org/2000/svg" xmlns:xlink="http://www.w3.org/1999/xlink">
<g id="graph0" class="graph" transform="scale(1 1) rotate(0) translate(4 207)">
<title>dependencies</title>
<polygon fill="white" stroke="transparent" points="-4,4 -4,-207 892,-207 892,4 -4,4"/>
<text text-anchor="start" x="423.01" y="-42.4" font-family="Times-12" font-weight="bold" font-size="14.00">Legend</text>
<polygon fill="#ffffb3" stroke="transparent" points="210,-10 210,-30 230,-30 230,-10 210,-10"/>
<text text-anchor="start" x="233.63" y="-15.4" font-family="Times-12" font-size="14.00"> &#160;Declarations</text>
<polygon fill="#8dd3c7" stroke="transparent" points="323,-10 323,-30 343,-30 343,-10 323,-10"/>
<text text-anchor="start" x="346.73" y="-15.4" font-family="Times-12" font-size="14.00"> &#160;Module</text>
<polygon fill="#80b1d3" stroke="transparent" points="409,-10 409,-30 429,-30 429,-10 409,-10"/>
<text text-anchor="start" x="432.78" y="-15.4" font-family="Times-12" font-size="14.00"> &#160;Bootstrap</text>
<polygon fill="#fdb462" stroke="transparent" points="506,-10 506,-30 526,-30 526,-10 506,-10"/>
<text text-anchor="start" x="529.67" y="-15.4" font-family="Times-12" font-size="14.00"> &#160;Providers</text>
<polygon fill="#fb8072" stroke="transparent" points="602,-10 602,-30 622,-30 622,-10 602,-10"/>
<text text-anchor="start" x="625.73" y="-15.4" font-family="Times-12" font-size="14.00"> &#160;Exports</text>
<g id="clust1" class="cluster">
<title>cluster_AppModule</title>
<polygon fill="none" stroke="black" stroke-dasharray="1,5" points="8,-70 8,-195 880,-195 880,-70 8,-70"/>
</g>
<g id="clust3" class="cluster">
<title>cluster_AppModule_imports</title>
<polygon fill="none" stroke="black" points="154,-78 154,-130 872,-130 872,-78 154,-78"/>
</g>
<g id="clust6" class="cluster">
<title>cluster_AppModule_providers</title>
<polygon fill="none" stroke="black" points="16,-78 16,-130 146,-130 146,-78 16,-78"/>
</g>
<!-- AuthModule -->
<g id="node1" class="node">
<title>AuthModule</title>
<polygon fill="#8dd3c7" stroke="black" points="863.55,-122 860.55,-126 839.55,-126 836.55,-122 776.45,-122 776.45,-86 863.55,-86 863.55,-122"/>
<text text-anchor="middle" x="820" y="-99.8" font-family="Times,serif" font-size="14.00">AuthModule</text>
</g>
<!-- AppModule -->
<g id="node7" class="node">
<title>AppModule</title>
<polygon fill="#8dd3c7" stroke="black" points="575.66,-187 572.66,-191 551.66,-191 548.66,-187 492.34,-187 492.34,-151 575.66,-151 575.66,-187"/>
<text text-anchor="middle" x="534" y="-164.8" font-family="Times,serif" font-size="14.00">AppModule</text>
</g>
<!-- AuthModule&#45;&gt;AppModule -->
<g id="edge1" class="edge">
<title>AuthModule&#45;&gt;AppModule</title>
<path fill="none" stroke="black" d="M820,-122.29C820,-144.21 820,-178 820,-178 820,-178 585.89,-178 585.89,-178"/>
<polygon fill="black" stroke="black" points="585.89,-174.5 575.89,-178 585.89,-181.5 585.89,-174.5"/>
</g>
<!-- ChatModule -->
<g id="node2" class="node">
<title>ChatModule</title>
<polygon fill="#8dd3c7" stroke="black" points="757.99,-122 754.99,-126 733.99,-126 730.99,-122 672.01,-122 672.01,-86 757.99,-86 757.99,-122"/>
<text text-anchor="middle" x="715" y="-99.8" font-family="Times,serif" font-size="14.00">ChatModule</text>
</g>
<!-- ChatModule&#45;&gt;AppModule -->
<g id="edge2" class="edge">
<title>ChatModule&#45;&gt;AppModule</title>
<path fill="none" stroke="black" d="M700.67,-122.03C700.67,-138.4 700.67,-160 700.67,-160 700.67,-160 586.06,-160 586.06,-160"/>
<polygon fill="black" stroke="black" points="586.06,-156.5 576.06,-160 586.06,-163.5 586.06,-156.5"/>
</g>
<!-- ChatModule&#45;&gt;AppModule -->
<g id="edge3" class="edge">
<title>ChatModule&#45;&gt;AppModule</title>
<path fill="none" stroke="black" d="M729.33,-122.11C729.33,-141.34 729.33,-169 729.33,-169 729.33,-169 585.9,-169 585.9,-169"/>
<polygon fill="black" stroke="black" points="585.9,-165.5 575.9,-169 585.9,-172.5 585.9,-165.5"/>
</g>
<!-- MessageModule -->
<g id="node3" class="node">
<title>MessageModule</title>
<polygon fill="#8dd3c7" stroke="black" points="654.03,-122 651.03,-126 630.03,-126 627.03,-122 545.97,-122 545.97,-86 654.03,-86 654.03,-122"/>
<text text-anchor="middle" x="600" y="-99.8" font-family="Times,serif" font-size="14.00">MessageModule</text>
</g>
<!-- MessageModule&#45;&gt;AppModule -->
<g id="edge4" class="edge">
<title>MessageModule&#45;&gt;AppModule</title>
<path fill="none" stroke="black" d="M560.78,-122.11C560.78,-122.11 560.78,-140.99 560.78,-140.99"/>
<polygon fill="black" stroke="black" points="557.28,-140.99 560.78,-150.99 564.28,-140.99 557.28,-140.99"/>
</g>
<!-- PaginationModule -->
<g id="node4" class="node">
<title>PaginationModule</title>
<polygon fill="#8dd3c7" stroke="black" points="527.93,-122 524.93,-126 503.93,-126 500.93,-122 408.07,-122 408.07,-86 527.93,-86 527.93,-122"/>
<text text-anchor="middle" x="468" y="-99.8" font-family="Times,serif" font-size="14.00">PaginationModule</text>
</g>
<!-- PaginationModule&#45;&gt;AppModule -->
<g id="edge5" class="edge">
<title>PaginationModule&#45;&gt;AppModule</title>
<path fill="none" stroke="black" d="M509.94,-122.11C509.94,-122.11 509.94,-140.99 509.94,-140.99"/>
<polygon fill="black" stroke="black" points="506.44,-140.99 509.94,-150.99 513.44,-140.99 506.44,-140.99"/>
</g>
<!-- UserModule -->
<g id="node5" class="node">
<title>UserModule</title>
<polygon fill="#8dd3c7" stroke="black" points="389.98,-122 386.98,-126 365.98,-126 362.98,-122 304.02,-122 304.02,-86 389.98,-86 389.98,-122"/>
<text text-anchor="middle" x="347" y="-99.8" font-family="Times,serif" font-size="14.00">UserModule</text>
</g>
<!-- UserModule&#45;&gt;AppModule -->
<g id="edge6" class="edge">
<title>UserModule&#45;&gt;AppModule</title>
<path fill="none" stroke="black" d="M347,-122.03C347,-138.4 347,-160 347,-160 347,-160 482.03,-160 482.03,-160"/>
<polygon fill="black" stroke="black" points="482.03,-163.5 492.03,-160 482.03,-156.5 482.03,-163.5"/>
</g>
<!-- WebSocketModule -->
<g id="node6" class="node">
<title>WebSocketModule</title>
<polygon fill="#8dd3c7" stroke="black" points="286.08,-122 283.08,-126 262.08,-126 259.08,-122 161.92,-122 161.92,-86 286.08,-86 286.08,-122"/>
<text text-anchor="middle" x="224" y="-99.8" font-family="Times,serif" font-size="14.00">WebSocketModule</text>
</g>
<!-- WebSocketModule&#45;&gt;AppModule -->
<g id="edge7" class="edge">
<title>WebSocketModule&#45;&gt;AppModule</title>
<path fill="none" stroke="black" d="M224,-122.11C224,-141.34 224,-169 224,-169 224,-169 482.19,-169 482.19,-169"/>
<polygon fill="black" stroke="black" points="482.19,-172.5 492.19,-169 482.19,-165.5 482.19,-172.5"/>
</g>
<!-- AppService -->
<g id="node8" class="node">
<title>AppService</title>
<ellipse fill="#fdb462" stroke="black" cx="81" cy="-104" rx="56.74" ry="18"/>
<text text-anchor="middle" x="81" y="-99.8" font-family="Times,serif" font-size="14.00">AppService</text>
</g>
<!-- AppService&#45;&gt;AppModule -->
<g id="edge8" class="edge">
<title>AppService&#45;&gt;AppModule</title>
<path fill="none" stroke="black" d="M81,-122.29C81,-144.21 81,-178 81,-178 81,-178 482.19,-178 482.19,-178"/>
<polygon fill="black" stroke="black" points="482.19,-181.5 492.19,-178 482.19,-174.5 482.19,-181.5"/>
</g>
</g>
</svg>
