<?xml version="1.0" encoding="UTF-8" standalone="no"?>
<!DOCTYPE svg PUBLIC "-//W3C//DTD SVG 1.1//EN"
 "http://www.w3.org/Graphics/SVG/1.1/DTD/svg11.dtd">
<!-- Generated by graphviz version 2.47.0 (20210316.0004)
 -->
<!-- Title: dependencies Pages: 1 -->
<svg width="896pt" height="211pt"
 viewBox="0.00 0.00 896.00 211.00" xmlns="http://www.w3.org/2000/svg" xmlns:xlink="http://www.w3.org/1999/xlink">
<g id="graph0" class="graph" transform="scale(1 1) rotate(0) translate(4 207)">
<title>dependencies</title>
<polygon fill="white" stroke="transparent" points="-4,4 -4,-207 892,-207 892,4 -4,4"/>
<text text-anchor="start" x="423.01" y="-42.4" font-family="Times-12" font-weight="bold" font-size="14.00">Legend</text>
<polygon fill="#ffffb3" stroke="transparent" points="210,-10 210,-30 230,-30 230,-10 210,-10"/>
<text text-anchor="start" x="233.63" y="-15.4" font-family="Times-12" font-size="14.00"> &#160;Declarations</text>
<polygon fill="#8dd3c7" stroke="transparent" points="323,-10 323,-30 343,-30 343,-10 323,-10"/>
<text text-anchor="start" x="346.73" y="-15.4" font-family="Times-12" font-size="14.00"> &#160;Module</text>
<polygon fill="#80b1d3" stroke="transparent" points="409,-10 409,-30 429,-30 429,-10 409,-10"/>
<text text-anchor="start" x="432.78" y="-15.4" font-family="Times-12" font-size="14.00"> &#160;Bootstrap</text>
<polygon fill="#fdb462" stroke="transparent" points="506,-10 506,-30 526,-30 526,-10 506,-10"/>
<text text-anchor="start" x="529.67" y="-15.4" font-family="Times-12" font-size="14.00"> &#160;Providers</text>
<polygon fill="#fb8072" stroke="transparent" points="602,-10 602,-30 622,-30 622,-10 602,-10"/>
<text text-anchor="start" x="625.73" y="-15.4" font-family="Times-12" font-size="14.00"> &#160;Exports</text>
<g id="clust1" class="cluster">
<title>cluster_AppModule</title>
<polygon fill="none" stroke="black" stroke-dasharray="1,5" points="8,-70 8,-195 880,-195 880,-70 8,-70"/>
</g>
<g id="clust6" class="cluster">
<title>cluster_AppModule_providers</title>
<polygon fill="none" stroke="black" points="742,-78 742,-130 872,-130 872,-78 742,-78"/>
</g>
<g id="clust3" class="cluster">
<title>cluster_AppModule_imports</title>
<polygon fill="none" stroke="black" points="16,-78 16,-130 734,-130 734,-78 16,-78"/>
</g>
<!-- AuthModule -->
<g id="node1" class="node">
<title>AuthModule</title>
<polygon fill="#8dd3c7" stroke="black" points="725.55,-122 722.55,-126 701.55,-126 698.55,-122 638.45,-122 638.45,-86 725.55,-86 725.55,-122"/>
<text text-anchor="middle" x="682" y="-99.8" font-family="Times,serif" font-size="14.00">AuthModule</text>
</g>
<!-- AppModule -->
<g id="node7" class="node">
<title>AppModule</title>
<polygon fill="#8dd3c7" stroke="black" points="560.66,-187 557.66,-191 536.66,-191 533.66,-187 477.34,-187 477.34,-151 560.66,-151 560.66,-187"/>
<text text-anchor="middle" x="519" y="-164.8" font-family="Times,serif" font-size="14.00">AppModule</text>
</g>
<!-- AuthModule&#45;&gt;AppModule -->
<g id="edge1" class="edge">
<title>AuthModule&#45;&gt;AppModule</title>
<path fill="none" stroke="black" d="M682,-122.02C682,-139.37 682,-163 682,-163 682,-163 570.98,-163 570.98,-163"/>
<polygon fill="black" stroke="black" points="570.98,-159.5 560.98,-163 570.98,-166.5 570.98,-159.5"/>
</g>
<!-- ChatModule -->
<g id="node2" class="node">
<title>ChatModule</title>
<polygon fill="#8dd3c7" stroke="black" points="619.99,-122 616.99,-126 595.99,-126 592.99,-122 534.01,-122 534.01,-86 619.99,-86 619.99,-122"/>
<text text-anchor="middle" x="577" y="-99.8" font-family="Times,serif" font-size="14.00">ChatModule</text>
</g>
<!-- ChatModule&#45;&gt;AppModule -->
<g id="edge2" class="edge">
<title>ChatModule&#45;&gt;AppModule</title>
<path fill="none" stroke="black" d="M542.95,-122.11C542.95,-122.11 542.95,-140.99 542.95,-140.99"/>
<polygon fill="black" stroke="black" points="539.45,-140.99 542.95,-150.99 546.45,-140.99 539.45,-140.99"/>
</g>
<!-- ChatModule&#45;&gt;AppModule -->
<g id="edge3" class="edge">
<title>ChatModule&#45;&gt;AppModule</title>
<path fill="none" stroke="black" d="M551.89,-122.11C551.89,-122.11 551.89,-140.99 551.89,-140.99"/>
<polygon fill="black" stroke="black" points="548.39,-140.99 551.89,-150.99 555.39,-140.99 548.39,-140.99"/>
</g>
<!-- MessageModule -->
<g id="node3" class="node">
<title>MessageModule</title>
<polygon fill="#8dd3c7" stroke="black" points="516.03,-122 513.03,-126 492.03,-126 489.03,-122 407.97,-122 407.97,-86 516.03,-86 516.03,-122"/>
<text text-anchor="middle" x="462" y="-99.8" font-family="Times,serif" font-size="14.00">MessageModule</text>
</g>
<!-- MessageModule&#45;&gt;AppModule -->
<g id="edge4" class="edge">
<title>MessageModule&#45;&gt;AppModule</title>
<path fill="none" stroke="black" d="M496.72,-122.11C496.72,-122.11 496.72,-140.99 496.72,-140.99"/>
<polygon fill="black" stroke="black" points="493.22,-140.99 496.72,-150.99 500.22,-140.99 493.22,-140.99"/>
</g>
<!-- PaginationModule -->
<g id="node4" class="node">
<title>PaginationModule</title>
<polygon fill="#8dd3c7" stroke="black" points="389.93,-122 386.93,-126 365.93,-126 362.93,-122 270.07,-122 270.07,-86 389.93,-86 389.93,-122"/>
<text text-anchor="middle" x="330" y="-99.8" font-family="Times,serif" font-size="14.00">PaginationModule</text>
</g>
<!-- PaginationModule&#45;&gt;AppModule -->
<g id="edge5" class="edge">
<title>PaginationModule&#45;&gt;AppModule</title>
<path fill="none" stroke="black" d="M330,-122.03C330,-138.4 330,-160 330,-160 330,-160 467.05,-160 467.05,-160"/>
<polygon fill="black" stroke="black" points="467.05,-163.5 477.05,-160 467.05,-156.5 467.05,-163.5"/>
</g>
<!-- UserModule -->
<g id="node5" class="node">
<title>UserModule</title>
<polygon fill="#8dd3c7" stroke="black" points="251.98,-122 248.98,-126 227.98,-126 224.98,-122 166.02,-122 166.02,-86 251.98,-86 251.98,-122"/>
<text text-anchor="middle" x="209" y="-99.8" font-family="Times,serif" font-size="14.00">UserModule</text>
</g>
<!-- UserModule&#45;&gt;AppModule -->
<g id="edge6" class="edge">
<title>UserModule&#45;&gt;AppModule</title>
<path fill="none" stroke="black" d="M209,-122.11C209,-141.34 209,-169 209,-169 209,-169 467.19,-169 467.19,-169"/>
<polygon fill="black" stroke="black" points="467.19,-172.5 477.19,-169 467.19,-165.5 467.19,-172.5"/>
</g>
<!-- WebSocketModule -->
<g id="node6" class="node">
<title>WebSocketModule</title>
<polygon fill="#8dd3c7" stroke="black" points="148.08,-122 145.08,-126 124.08,-126 121.08,-122 23.92,-122 23.92,-86 148.08,-86 148.08,-122"/>
<text text-anchor="middle" x="86" y="-99.8" font-family="Times,serif" font-size="14.00">WebSocketModule</text>
</g>
<!-- WebSocketModule&#45;&gt;AppModule -->
<g id="edge7" class="edge">
<title>WebSocketModule&#45;&gt;AppModule</title>
<path fill="none" stroke="black" d="M86,-122.29C86,-144.21 86,-178 86,-178 86,-178 467.09,-178 467.09,-178"/>
<polygon fill="black" stroke="black" points="467.09,-181.5 477.09,-178 467.09,-174.5 467.09,-181.5"/>
</g>
<!-- AppService -->
<g id="node8" class="node">
<title>AppService</title>
<ellipse fill="#fdb462" stroke="black" cx="807" cy="-104" rx="56.74" ry="18"/>
<text text-anchor="middle" x="807" y="-99.8" font-family="Times,serif" font-size="14.00">AppService</text>
</g>
<!-- AppService&#45;&gt;AppModule -->
<g id="edge8" class="edge">
<title>AppService&#45;&gt;AppModule</title>
<path fill="none" stroke="black" d="M807,-122.28C807,-143.32 807,-175 807,-175 807,-175 570.88,-175 570.88,-175"/>
<polygon fill="black" stroke="black" points="570.88,-171.5 560.88,-175 570.88,-178.5 570.88,-171.5"/>
</g>
</g>
</svg>
