<?xml version="1.0" encoding="UTF-8" standalone="no"?>
<!DOCTYPE svg PUBLIC "-//W3C//DTD SVG 1.1//EN"
 "http://www.w3.org/Graphics/SVG/1.1/DTD/svg11.dtd">
<!-- Generated by graphviz version 2.47.0 (20210316.0004)
 -->
<!-- Title: dependencies Pages: 1 -->
<svg width="534pt" height="284pt"
 viewBox="0.00 0.00 534.00 284.00" xmlns="http://www.w3.org/2000/svg" xmlns:xlink="http://www.w3.org/1999/xlink">
<g id="graph0" class="graph" transform="scale(1 1) rotate(0) translate(4 280)">
<title>dependencies</title>
<polygon fill="white" stroke="transparent" points="-4,4 -4,-280 530,-280 530,4 -4,4"/>
<text text-anchor="start" x="242.01" y="-42.4" font-family="Times-12" font-weight="bold" font-size="14.00">Legend</text>
<polygon fill="#ffffb3" stroke="transparent" points="29,-10 29,-30 49,-30 49,-10 29,-10"/>
<text text-anchor="start" x="52.63" y="-15.4" font-family="Times-12" font-size="14.00"> &#160;Declarations</text>
<polygon fill="#8dd3c7" stroke="transparent" points="142,-10 142,-30 162,-30 162,-10 142,-10"/>
<text text-anchor="start" x="165.73" y="-15.4" font-family="Times-12" font-size="14.00"> &#160;Module</text>
<polygon fill="#80b1d3" stroke="transparent" points="228,-10 228,-30 248,-30 248,-10 228,-10"/>
<text text-anchor="start" x="251.78" y="-15.4" font-family="Times-12" font-size="14.00"> &#160;Bootstrap</text>
<polygon fill="#fdb462" stroke="transparent" points="325,-10 325,-30 345,-30 345,-10 325,-10"/>
<text text-anchor="start" x="348.67" y="-15.4" font-family="Times-12" font-size="14.00"> &#160;Providers</text>
<polygon fill="#fb8072" stroke="transparent" points="421,-10 421,-30 441,-30 441,-10 421,-10"/>
<text text-anchor="start" x="444.73" y="-15.4" font-family="Times-12" font-size="14.00"> &#160;Exports</text>
<g id="clust1" class="cluster">
<title>cluster_MessageModule</title>
<polygon fill="none" stroke="black" stroke-dasharray="1,5" points="8,-70 8,-268 518,-268 518,-70 8,-70"/>
</g>
<g id="clust3" class="cluster">
<title>cluster_MessageModule_imports</title>
<polygon fill="none" stroke="black" points="372,-78 372,-130 510,-130 510,-78 372,-78"/>
</g>
<g id="clust4" class="cluster">
<title>cluster_MessageModule_exports</title>
<polygon fill="none" stroke="black" points="210,-208 210,-260 336,-260 336,-208 210,-208"/>
</g>
<g id="clust6" class="cluster">
<title>cluster_MessageModule_providers</title>
<polygon fill="none" stroke="black" points="16,-78 16,-130 364,-130 364,-78 16,-78"/>
</g>
<!-- CloudinaryModule -->
<g id="node1" class="node">
<title>CloudinaryModule</title>
<polygon fill="#8dd3c7" stroke="black" points="502.04,-122 499.04,-126 478.04,-126 475.04,-122 379.96,-122 379.96,-86 502.04,-86 502.04,-122"/>
<text text-anchor="middle" x="441" y="-99.8" font-family="Times,serif" font-size="14.00">CloudinaryModule</text>
</g>
<!-- MessageModule -->
<g id="node2" class="node">
<title>MessageModule</title>
<polygon fill="#8dd3c7" stroke="black" points="327.03,-187 324.03,-191 303.03,-191 300.03,-187 218.97,-187 218.97,-151 327.03,-151 327.03,-187"/>
<text text-anchor="middle" x="273" y="-164.8" font-family="Times,serif" font-size="14.00">MessageModule</text>
</g>
<!-- CloudinaryModule&#45;&gt;MessageModule -->
<g id="edge1" class="edge">
<title>CloudinaryModule&#45;&gt;MessageModule</title>
<path fill="none" stroke="black" d="M441,-122.11C441,-141.34 441,-169 441,-169 441,-169 337.08,-169 337.08,-169"/>
<polygon fill="black" stroke="black" points="337.08,-165.5 327.08,-169 337.08,-172.5 337.08,-165.5"/>
</g>
<!-- MessageService  -->
<g id="node3" class="node">
<title>MessageService </title>
<polygon fill="#fb8072" stroke="black" points="328.46,-252 217.54,-252 217.54,-216 328.46,-216 328.46,-252"/>
<text text-anchor="middle" x="273" y="-229.8" font-family="Times,serif" font-size="14.00">MessageService </text>
</g>
<!-- MessageModule&#45;&gt;MessageService  -->
<g id="edge2" class="edge">
<title>MessageModule&#45;&gt;MessageService </title>
<path fill="none" stroke="black" stroke-dasharray="5,2" d="M273,-187.11C273,-187.11 273,-205.99 273,-205.99"/>
<polygon fill="black" stroke="black" points="269.5,-205.99 273,-215.99 276.5,-205.99 269.5,-205.99"/>
</g>
<!-- CloudinaryService -->
<g id="node4" class="node">
<title>CloudinaryService</title>
<ellipse fill="#fdb462" stroke="black" cx="273" cy="-104" rx="83.39" ry="18"/>
<text text-anchor="middle" x="273" y="-99.8" font-family="Times,serif" font-size="14.00">CloudinaryService</text>
</g>
<!-- CloudinaryService&#45;&gt;MessageModule -->
<g id="edge3" class="edge">
<title>CloudinaryService&#45;&gt;MessageModule</title>
<path fill="none" stroke="black" d="M273,-122.11C273,-122.11 273,-140.99 273,-140.99"/>
<polygon fill="black" stroke="black" points="269.5,-140.99 273,-150.99 276.5,-140.99 269.5,-140.99"/>
</g>
<!-- MessageService -->
<g id="node5" class="node">
<title>MessageService</title>
<ellipse fill="#fdb462" stroke="black" cx="98" cy="-104" rx="73.55" ry="18"/>
<text text-anchor="middle" x="98" y="-99.8" font-family="Times,serif" font-size="14.00">MessageService</text>
</g>
<!-- MessageService&#45;&gt;MessageModule -->
<g id="edge4" class="edge">
<title>MessageService&#45;&gt;MessageModule</title>
<path fill="none" stroke="black" d="M98,-122.11C98,-141.34 98,-169 98,-169 98,-169 208.59,-169 208.59,-169"/>
<polygon fill="black" stroke="black" points="208.59,-172.5 218.59,-169 208.59,-165.5 208.59,-172.5"/>
</g>
</g>
</svg>
