<?xml version="1.0" encoding="UTF-8" standalone="no"?>
<!DOCTYPE svg PUBLIC "-//W3C//DTD SVG 1.1//EN"
 "http://www.w3.org/Graphics/SVG/1.1/DTD/svg11.dtd">
<!-- Generated by graphviz version 2.47.0 (20210316.0004)
 -->
<!-- Title: dependencies Pages: 1 -->
<svg width="3344pt" height="355pt"
 viewBox="0.00 0.00 3344.00 355.00" xmlns="http://www.w3.org/2000/svg" xmlns:xlink="http://www.w3.org/1999/xlink">
<g id="graph0" class="graph" transform="scale(1 1) rotate(0) translate(4 351)">
<title>dependencies</title>
<polygon fill="white" stroke="transparent" points="-4,4 -4,-351 3340,-351 3340,4 -4,4"/>
<text text-anchor="start" x="1647.01" y="-42.4" font-family="Times-12" font-weight="bold" font-size="14.00">Legend</text>
<polygon fill="#ffffb3" stroke="transparent" points="1434,-10 1434,-30 1454,-30 1454,-10 1434,-10"/>
<text text-anchor="start" x="1457.63" y="-15.4" font-family="Times-12" font-size="14.00"> &#160;Declarations</text>
<polygon fill="#8dd3c7" stroke="transparent" points="1547,-10 1547,-30 1567,-30 1567,-10 1547,-10"/>
<text text-anchor="start" x="1570.73" y="-15.4" font-family="Times-12" font-size="14.00"> &#160;Module</text>
<polygon fill="#80b1d3" stroke="transparent" points="1633,-10 1633,-30 1653,-30 1653,-10 1633,-10"/>
<text text-anchor="start" x="1656.78" y="-15.4" font-family="Times-12" font-size="14.00"> &#160;Bootstrap</text>
<polygon fill="#fdb462" stroke="transparent" points="1730,-10 1730,-30 1750,-30 1750,-10 1730,-10"/>
<text text-anchor="start" x="1753.67" y="-15.4" font-family="Times-12" font-size="14.00"> &#160;Providers</text>
<polygon fill="#fb8072" stroke="transparent" points="1826,-10 1826,-30 1846,-30 1846,-10 1826,-10"/>
<text text-anchor="start" x="1849.73" y="-15.4" font-family="Times-12" font-size="14.00"> &#160;Exports</text>
<g id="clust1" class="cluster">
<title>cluster_AppModule</title>
<polygon fill="none" stroke="black" stroke-dasharray="1,5" points="1310,-214 1310,-339 1914,-339 1914,-214 1310,-214"/>
</g>
<g id="clust3" class="cluster">
<title>cluster_AppModule_imports</title>
<polygon fill="none" stroke="black" points="1456,-222 1456,-274 1906,-274 1906,-222 1456,-222"/>
</g>
<g id="clust6" class="cluster">
<title>cluster_AppModule_providers</title>
<polygon fill="none" stroke="black" points="1318,-222 1318,-274 1448,-274 1448,-222 1318,-222"/>
</g>
<g id="clust7" class="cluster">
<title>cluster_AuthModule</title>
<polygon fill="none" stroke="black" stroke-dasharray="1,5" points="1880,-138 1880,-206 3162,-206 3162,-138 1880,-138"/>
</g>
<g id="clust10" class="cluster">
<title>cluster_AuthModule_exports</title>
<polygon fill="none" stroke="black" points="1888,-146 1888,-198 2126,-198 2126,-146 1888,-146"/>
</g>
<g id="clust12" class="cluster">
<title>cluster_AuthModule_providers</title>
<polygon fill="none" stroke="black" points="2134,-146 2134,-198 3154,-198 3154,-146 2134,-146"/>
</g>
<g id="clust13" class="cluster">
<title>cluster_ChatModule</title>
<polygon fill="none" stroke="black" stroke-dasharray="1,5" points="8,-138 8,-206 350,-206 350,-138 8,-138"/>
</g>
<g id="clust16" class="cluster">
<title>cluster_ChatModule_exports</title>
<polygon fill="none" stroke="black" points="204,-146 204,-198 342,-198 342,-146 204,-146"/>
</g>
<g id="clust18" class="cluster">
<title>cluster_ChatModule_providers</title>
<polygon fill="none" stroke="black" points="16,-146 16,-198 196,-198 196,-146 16,-146"/>
</g>
<g id="clust19" class="cluster">
<title>cluster_GoogleAuthticationModule</title>
<polygon fill="none" stroke="black" stroke-dasharray="1,5" points="2927,-222 2927,-274 3113,-274 3113,-222 2927,-222"/>
</g>
<g id="clust25" class="cluster">
<title>cluster_MailModule</title>
<polygon fill="none" stroke="black" stroke-dasharray="1,5" points="3170,-70 3170,-282 3328,-282 3328,-70 3170,-70"/>
</g>
<g id="clust28" class="cluster">
<title>cluster_MailModule_exports</title>
<polygon fill="none" stroke="black" points="3186,-222 3186,-274 3296,-274 3296,-222 3186,-222"/>
</g>
<g id="clust30" class="cluster">
<title>cluster_MailModule_providers</title>
<polygon fill="none" stroke="black" points="3178,-78 3178,-130 3320,-130 3320,-78 3178,-78"/>
</g>
<g id="clust31" class="cluster">
<title>cluster_PaginationModule</title>
<polygon fill="none" stroke="black" stroke-dasharray="1,5" points="358,-138 358,-206 714,-206 714,-138 358,-138"/>
</g>
<g id="clust34" class="cluster">
<title>cluster_PaginationModule_exports</title>
<polygon fill="none" stroke="black" points="562,-146 562,-198 706,-198 706,-146 562,-146"/>
</g>
<g id="clust36" class="cluster">
<title>cluster_PaginationModule_providers</title>
<polygon fill="none" stroke="black" points="366,-146 366,-198 554,-198 554,-146 366,-146"/>
</g>
<g id="clust37" class="cluster">
<title>cluster_UserModule</title>
<polygon fill="none" stroke="black" stroke-dasharray="1,5" points="722,-138 722,-206 1872,-206 1872,-138 722,-138"/>
</g>
<g id="clust40" class="cluster">
<title>cluster_UserModule_exports</title>
<polygon fill="none" stroke="black" points="1760,-146 1760,-198 1864,-198 1864,-146 1760,-146"/>
</g>
<g id="clust42" class="cluster">
<title>cluster_UserModule_providers</title>
<polygon fill="none" stroke="black" points="730,-146 730,-198 1752,-198 1752,-146 730,-146"/>
</g>
<!-- AuthModule -->
<g id="node1" class="node">
<title>AuthModule</title>
<polygon fill="#8dd3c7" stroke="black" points="1897.55,-266 1894.55,-270 1873.55,-270 1870.55,-266 1810.45,-266 1810.45,-230 1897.55,-230 1897.55,-266"/>
<text text-anchor="middle" x="1854" y="-243.8" font-family="Times,serif" font-size="14.00">AuthModule</text>
</g>
<!-- AppModule -->
<g id="node5" class="node">
<title>AppModule</title>
<polygon fill="#8dd3c7" stroke="black" points="1669.66,-331 1666.66,-335 1645.66,-335 1642.66,-331 1586.34,-331 1586.34,-295 1669.66,-295 1669.66,-331"/>
<text text-anchor="middle" x="1628" y="-308.8" font-family="Times,serif" font-size="14.00">AppModule</text>
</g>
<!-- AuthModule&#45;&gt;AppModule -->
<g id="edge1" class="edge">
<title>AuthModule&#45;&gt;AppModule</title>
<path fill="none" stroke="black" d="M1854,-266.28C1854,-287.32 1854,-319 1854,-319 1854,-319 1679.72,-319 1679.72,-319"/>
<polygon fill="black" stroke="black" points="1679.72,-315.5 1669.72,-319 1679.72,-322.5 1679.72,-315.5"/>
</g>
<!-- AuthService  -->
<g id="node7" class="node">
<title>AuthService </title>
<polygon fill="#fb8072" stroke="black" points="2117.98,-190 2028.02,-190 2028.02,-154 2117.98,-154 2117.98,-190"/>
<text text-anchor="middle" x="2073" y="-167.8" font-family="Times,serif" font-size="14.00">AuthService </text>
</g>
<!-- AuthModule&#45;&gt;AuthService  -->
<g id="edge6" class="edge">
<title>AuthModule&#45;&gt;AuthService </title>
<path fill="none" stroke="black" stroke-dasharray="5,2" d="M1897.79,-236C1961.7,-236 2073,-236 2073,-236 2073,-236 2073,-200.17 2073,-200.17"/>
<polygon fill="black" stroke="black" points="2076.5,-200.17 2073,-190.17 2069.5,-200.17 2076.5,-200.17"/>
</g>
<!-- HashingProvider  -->
<g id="node8" class="node">
<title>HashingProvider </title>
<polygon fill="#fb8072" stroke="black" points="2010.37,-190 1895.63,-190 1895.63,-154 2010.37,-154 2010.37,-190"/>
<text text-anchor="middle" x="1953" y="-167.8" font-family="Times,serif" font-size="14.00">HashingProvider </text>
</g>
<!-- AuthModule&#45;&gt;HashingProvider  -->
<g id="edge7" class="edge">
<title>AuthModule&#45;&gt;HashingProvider </title>
<path fill="none" stroke="black" stroke-dasharray="5,2" d="M1875.88,-229.99C1875.88,-207.51 1875.88,-172 1875.88,-172 1875.88,-172 1885.74,-172 1885.74,-172"/>
<polygon fill="black" stroke="black" points="1885.74,-175.5 1895.74,-172 1885.74,-168.5 1885.74,-175.5"/>
</g>
<!-- ChatModule -->
<g id="node2" class="node">
<title>ChatModule</title>
<polygon fill="#8dd3c7" stroke="black" points="1549.99,-266 1546.99,-270 1525.99,-270 1522.99,-266 1464.01,-266 1464.01,-230 1549.99,-230 1549.99,-266"/>
<text text-anchor="middle" x="1507" y="-243.8" font-family="Times,serif" font-size="14.00">ChatModule</text>
</g>
<!-- ChatModule&#45;&gt;AppModule -->
<g id="edge2" class="edge">
<title>ChatModule&#45;&gt;AppModule</title>
<path fill="none" stroke="black" d="M1507,-266.02C1507,-283.37 1507,-307 1507,-307 1507,-307 1576.02,-307 1576.02,-307"/>
<polygon fill="black" stroke="black" points="1576.02,-310.5 1586.02,-307 1576.02,-303.5 1576.02,-310.5"/>
</g>
<!-- ChatRoomService  -->
<g id="node14" class="node">
<title>ChatRoomService </title>
<polygon fill="#fb8072" stroke="black" points="334.15,-190 211.85,-190 211.85,-154 334.15,-154 334.15,-190"/>
<text text-anchor="middle" x="273" y="-167.8" font-family="Times,serif" font-size="14.00">ChatRoomService </text>
</g>
<!-- ChatModule&#45;&gt;ChatRoomService  -->
<g id="edge13" class="edge">
<title>ChatModule&#45;&gt;ChatRoomService </title>
<path fill="none" stroke="black" stroke-dasharray="5,2" d="M1521.33,-229.94C1521.33,-225.51 1521.33,-222 1521.33,-222 1521.33,-222 273,-222 273,-222 273,-222 273,-200.05 273,-200.05"/>
<polygon fill="black" stroke="black" points="276.5,-200.05 273,-190.05 269.5,-200.05 276.5,-200.05"/>
</g>
<!-- PaginationModule -->
<g id="node3" class="node">
<title>PaginationModule</title>
<polygon fill="#8dd3c7" stroke="black" points="1687.93,-266 1684.93,-270 1663.93,-270 1660.93,-266 1568.07,-266 1568.07,-230 1687.93,-230 1687.93,-266"/>
<text text-anchor="middle" x="1628" y="-243.8" font-family="Times,serif" font-size="14.00">PaginationModule</text>
</g>
<!-- PaginationModule&#45;&gt;AppModule -->
<g id="edge3" class="edge">
<title>PaginationModule&#45;&gt;AppModule</title>
<path fill="none" stroke="black" d="M1628,-266.11C1628,-266.11 1628,-284.99 1628,-284.99"/>
<polygon fill="black" stroke="black" points="1624.5,-284.99 1628,-294.99 1631.5,-284.99 1624.5,-284.99"/>
</g>
<!-- PaginationProvider  -->
<g id="node20" class="node">
<title>PaginationProvider </title>
<polygon fill="#fb8072" stroke="black" points="697.59,-190 570.41,-190 570.41,-154 697.59,-154 697.59,-190"/>
<text text-anchor="middle" x="634" y="-167.8" font-family="Times,serif" font-size="14.00">PaginationProvider </text>
</g>
<!-- PaginationModule&#45;&gt;PaginationProvider  -->
<g id="edge18" class="edge">
<title>PaginationModule&#45;&gt;PaginationProvider </title>
<path fill="none" stroke="black" stroke-dasharray="5,2" d="M1589.21,-229.81C1589.21,-221.72 1589.21,-214 1589.21,-214 1589.21,-214 634,-214 634,-214 634,-214 634,-200.06 634,-200.06"/>
<polygon fill="black" stroke="black" points="637.5,-200.06 634,-190.06 630.5,-200.06 637.5,-200.06"/>
</g>
<!-- UserModule -->
<g id="node4" class="node">
<title>UserModule</title>
<polygon fill="#8dd3c7" stroke="black" points="1791.98,-266 1788.98,-270 1767.98,-270 1764.98,-266 1706.02,-266 1706.02,-230 1791.98,-230 1791.98,-266"/>
<text text-anchor="middle" x="1749" y="-243.8" font-family="Times,serif" font-size="14.00">UserModule</text>
</g>
<!-- UserModule&#45;&gt;AppModule -->
<g id="edge4" class="edge">
<title>UserModule&#45;&gt;AppModule</title>
<path fill="none" stroke="black" d="M1749,-266.02C1749,-283.37 1749,-307 1749,-307 1749,-307 1679.98,-307 1679.98,-307"/>
<polygon fill="black" stroke="black" points="1679.98,-303.5 1669.98,-307 1679.98,-310.5 1679.98,-303.5"/>
</g>
<!-- UserService  -->
<g id="node22" class="node">
<title>UserService </title>
<polygon fill="#fb8072" stroke="black" points="1855.9,-190 1768.1,-190 1768.1,-154 1855.9,-154 1855.9,-190"/>
<text text-anchor="middle" x="1812" y="-167.8" font-family="Times,serif" font-size="14.00">UserService </text>
</g>
<!-- UserModule&#45;&gt;UserService  -->
<g id="edge21" class="edge">
<title>UserModule&#45;&gt;UserService </title>
<path fill="none" stroke="black" stroke-dasharray="5,2" d="M1776.03,-229.99C1776.03,-229.99 1776.03,-200.15 1776.03,-200.15"/>
<polygon fill="black" stroke="black" points="1779.53,-200.15 1776.03,-190.15 1772.53,-200.15 1779.53,-200.15"/>
</g>
<!-- AppService -->
<g id="node6" class="node">
<title>AppService</title>
<ellipse fill="#fdb462" stroke="black" cx="1383" cy="-248" rx="56.74" ry="18"/>
<text text-anchor="middle" x="1383" y="-243.8" font-family="Times,serif" font-size="14.00">AppService</text>
</g>
<!-- AppService&#45;&gt;AppModule -->
<g id="edge5" class="edge">
<title>AppService&#45;&gt;AppModule</title>
<path fill="none" stroke="black" d="M1383,-266.28C1383,-287.32 1383,-319 1383,-319 1383,-319 1576.16,-319 1576.16,-319"/>
<polygon fill="black" stroke="black" points="1576.16,-322.5 1586.16,-319 1576.16,-315.5 1576.16,-322.5"/>
</g>
<!-- AuthService -->
<g id="node9" class="node">
<title>AuthService</title>
<ellipse fill="#fdb462" stroke="black" cx="2435" cy="-172" rx="59.11" ry="18"/>
<text text-anchor="middle" x="2435" y="-167.8" font-family="Times,serif" font-size="14.00">AuthService</text>
</g>
<!-- AuthService&#45;&gt;AuthModule -->
<g id="edge8" class="edge">
<title>AuthService&#45;&gt;AuthModule</title>
<path fill="none" stroke="black" d="M2435,-190.29C2435,-212.21 2435,-246 2435,-246 2435,-246 1907.67,-246 1907.67,-246"/>
<polygon fill="black" stroke="black" points="1907.67,-242.5 1897.67,-246 1907.67,-249.5 1907.67,-242.5"/>
</g>
<!-- GenerateTokensProvider -->
<g id="node10" class="node">
<title>GenerateTokensProvider</title>
<ellipse fill="#fdb462" stroke="black" cx="2250" cy="-172" rx="107.63" ry="18"/>
<text text-anchor="middle" x="2250" y="-167.8" font-family="Times,serif" font-size="14.00">GenerateTokensProvider</text>
</g>
<!-- GenerateTokensProvider&#45;&gt;AuthModule -->
<g id="edge9" class="edge">
<title>GenerateTokensProvider&#45;&gt;AuthModule</title>
<path fill="none" stroke="black" d="M2250,-190.13C2250,-210.57 2250,-241 2250,-241 2250,-241 1907.89,-241 1907.89,-241"/>
<polygon fill="black" stroke="black" points="1907.89,-237.5 1897.89,-241 1907.89,-244.5 1907.89,-237.5"/>
</g>
<!-- GoogleAuthenticationService -->
<g id="node11" class="node">
<title>GoogleAuthenticationService</title>
<ellipse fill="#fdb462" stroke="black" cx="3020" cy="-172" rx="125.62" ry="18"/>
<text text-anchor="middle" x="3020" y="-167.8" font-family="Times,serif" font-size="14.00">GoogleAuthenticationService</text>
</g>
<!-- GoogleAuthenticationService&#45;&gt;AuthModule -->
<g id="edge10" class="edge">
<title>GoogleAuthenticationService&#45;&gt;AuthModule</title>
<path fill="none" stroke="black" d="M2914.41,-181.86C2914.41,-205.04 2914.41,-261 2914.41,-261 2914.41,-261 1907.88,-261 1907.88,-261"/>
<polygon fill="black" stroke="black" points="1907.88,-257.5 1897.88,-261 1907.88,-264.5 1907.88,-257.5"/>
</g>
<!-- GoogleAuthticationModule -->
<g id="node16" class="node">
<title>GoogleAuthticationModule</title>
<polygon fill="#8dd3c7" stroke="black" points="3105.25,-266 3102.25,-270 3081.25,-270 3078.25,-266 2934.75,-266 2934.75,-230 3105.25,-230 3105.25,-266"/>
<text text-anchor="middle" x="3020" y="-243.8" font-family="Times,serif" font-size="14.00">GoogleAuthticationModule</text>
</g>
<!-- GoogleAuthenticationService&#45;&gt;GoogleAuthticationModule -->
<g id="edge15" class="edge">
<title>GoogleAuthenticationService&#45;&gt;GoogleAuthticationModule</title>
<path fill="none" stroke="black" d="M3020,-190.01C3020,-190.01 3020,-219.85 3020,-219.85"/>
<polygon fill="black" stroke="black" points="3016.5,-219.85 3020,-229.85 3023.5,-219.85 3016.5,-219.85"/>
</g>
<!-- RefreshTokensProvider -->
<g id="node12" class="node">
<title>RefreshTokensProvider</title>
<ellipse fill="#fdb462" stroke="black" cx="2615" cy="-172" rx="102.99" ry="18"/>
<text text-anchor="middle" x="2615" y="-167.8" font-family="Times,serif" font-size="14.00">RefreshTokensProvider</text>
</g>
<!-- RefreshTokensProvider&#45;&gt;AuthModule -->
<g id="edge11" class="edge">
<title>RefreshTokensProvider&#45;&gt;AuthModule</title>
<path fill="none" stroke="black" d="M2615,-190.32C2615,-213.66 2615,-251 2615,-251 2615,-251 1907.65,-251 1907.65,-251"/>
<polygon fill="black" stroke="black" points="1907.65,-247.5 1897.65,-251 1907.65,-254.5 1907.65,-247.5"/>
</g>
<!-- SignInProvider -->
<g id="node13" class="node">
<title>SignInProvider</title>
<ellipse fill="#fdb462" stroke="black" cx="2806" cy="-172" rx="70.08" ry="18"/>
<text text-anchor="middle" x="2806" y="-167.8" font-family="Times,serif" font-size="14.00">SignInProvider</text>
</g>
<!-- SignInProvider&#45;&gt;AuthModule -->
<g id="edge12" class="edge">
<title>SignInProvider&#45;&gt;AuthModule</title>
<path fill="none" stroke="black" d="M2806,-190.23C2806,-214.93 2806,-256 2806,-256 2806,-256 1907.69,-256 1907.69,-256"/>
<polygon fill="black" stroke="black" points="1907.69,-252.5 1897.69,-256 1907.69,-259.5 1907.69,-252.5"/>
</g>
<!-- ChatRoomService -->
<g id="node15" class="node">
<title>ChatRoomService</title>
<ellipse fill="#fdb462" stroke="black" cx="106" cy="-172" rx="81.68" ry="18"/>
<text text-anchor="middle" x="106" y="-167.8" font-family="Times,serif" font-size="14.00">ChatRoomService</text>
</g>
<!-- ChatRoomService&#45;&gt;ChatModule -->
<g id="edge14" class="edge">
<title>ChatRoomService&#45;&gt;ChatModule</title>
<path fill="none" stroke="black" d="M106,-190.28C106,-205.95 106,-226 106,-226 106,-226 1492.67,-226 1492.67,-226 1492.67,-226 1492.67,-226.38 1492.67,-226.38"/>
<polygon fill="black" stroke="black" points="1489.17,-219.83 1492.67,-229.83 1496.17,-219.83 1489.17,-219.83"/>
</g>
<!-- MailProvider  -->
<g id="node17" class="node">
<title>MailProvider </title>
<polygon fill="#fb8072" stroke="black" points="3288.15,-266 3193.85,-266 3193.85,-230 3288.15,-230 3288.15,-266"/>
<text text-anchor="middle" x="3241" y="-243.8" font-family="Times,serif" font-size="14.00">MailProvider </text>
</g>
<!-- MailModule -->
<g id="node18" class="node">
<title>MailModule</title>
<polygon fill="#8dd3c7" stroke="black" points="3283.99,-190 3280.99,-194 3259.99,-194 3256.99,-190 3198.01,-190 3198.01,-154 3283.99,-154 3283.99,-190"/>
<text text-anchor="middle" x="3241" y="-167.8" font-family="Times,serif" font-size="14.00">MailModule</text>
</g>
<!-- MailModule&#45;&gt;UserModule -->
<g id="edge20" class="edge">
<title>MailModule&#45;&gt;UserModule</title>
<path fill="none" stroke="black" d="M3226.67,-190.17C3226.67,-192.45 3226.67,-194 3226.67,-194 3226.67,-194 1784.01,-194 1784.01,-194 1784.01,-194 1784.01,-219.72 1784.01,-219.72"/>
<polygon fill="black" stroke="black" points="1780.51,-219.72 1784.01,-229.72 1787.51,-219.72 1780.51,-219.72"/>
</g>
<!-- MailModule&#45;&gt;MailProvider  -->
<g id="edge16" class="edge">
<title>MailModule&#45;&gt;MailProvider </title>
<path fill="none" stroke="black" stroke-dasharray="5,2" d="M3255.33,-190.01C3255.33,-190.01 3255.33,-219.85 3255.33,-219.85"/>
<polygon fill="black" stroke="black" points="3251.83,-219.85 3255.33,-229.85 3258.83,-219.85 3251.83,-219.85"/>
</g>
<!-- MailProvider -->
<g id="node19" class="node">
<title>MailProvider</title>
<ellipse fill="#fdb462" stroke="black" cx="3249" cy="-104" rx="62.56" ry="18"/>
<text text-anchor="middle" x="3249" y="-99.8" font-family="Times,serif" font-size="14.00">MailProvider</text>
</g>
<!-- MailProvider&#45;&gt;MailModule -->
<g id="edge17" class="edge">
<title>MailProvider&#45;&gt;MailModule</title>
<path fill="none" stroke="black" d="M3241,-121.87C3241,-121.87 3241,-143.54 3241,-143.54"/>
<polygon fill="black" stroke="black" points="3237.5,-143.54 3241,-153.54 3244.5,-143.54 3237.5,-143.54"/>
</g>
<!-- PaginationProvider -->
<g id="node21" class="node">
<title>PaginationProvider</title>
<ellipse fill="#fdb462" stroke="black" cx="460" cy="-172" rx="85.69" ry="18"/>
<text text-anchor="middle" x="460" y="-167.8" font-family="Times,serif" font-size="14.00">PaginationProvider</text>
</g>
<!-- PaginationProvider&#45;&gt;PaginationModule -->
<g id="edge19" class="edge">
<title>PaginationProvider&#45;&gt;PaginationModule</title>
<path fill="none" stroke="black" d="M460,-190.18C460,-203.04 460,-218 460,-218 460,-218 1578.75,-218 1578.75,-218 1578.75,-218 1578.75,-219.86 1578.75,-219.86"/>
<polygon fill="black" stroke="black" points="1575.25,-219.86 1578.75,-229.86 1582.25,-219.86 1575.25,-219.86"/>
</g>
<!-- CreateGoogleUserProvider -->
<g id="node23" class="node">
<title>CreateGoogleUserProvider</title>
<ellipse fill="#fdb462" stroke="black" cx="1494" cy="-172" rx="116.29" ry="18"/>
<text text-anchor="middle" x="1494" y="-167.8" font-family="Times,serif" font-size="14.00">CreateGoogleUserProvider</text>
</g>
<!-- CreateGoogleUserProvider&#45;&gt;UserModule -->
<g id="edge22" class="edge">
<title>CreateGoogleUserProvider&#45;&gt;UserModule</title>
<path fill="none" stroke="black" d="M1599.68,-179.66C1599.68,-187.33 1599.68,-198 1599.68,-198 1599.68,-198 1731.48,-198 1731.48,-198 1731.48,-198 1731.48,-219.95 1731.48,-219.95"/>
<polygon fill="black" stroke="black" points="1727.98,-219.95 1731.48,-229.95 1734.98,-219.95 1727.98,-219.95"/>
</g>
<!-- CreateUserProvider -->
<g id="node24" class="node">
<title>CreateUserProvider</title>
<ellipse fill="#fdb462" stroke="black" cx="1272" cy="-172" rx="87.94" ry="18"/>
<text text-anchor="middle" x="1272" y="-167.8" font-family="Times,serif" font-size="14.00">CreateUserProvider</text>
</g>
<!-- CreateUserProvider&#45;&gt;UserModule -->
<g id="edge23" class="edge">
<title>CreateUserProvider&#45;&gt;UserModule</title>
<path fill="none" stroke="black" d="M1343.05,-182.83C1343.05,-191.42 1343.05,-202 1343.05,-202 1343.05,-202 1725.12,-202 1725.12,-202 1725.12,-202 1725.12,-219.82 1725.12,-219.82"/>
<polygon fill="black" stroke="black" points="1721.62,-219.82 1725.12,-229.82 1728.62,-219.82 1721.62,-219.82"/>
</g>
<!-- FindOneByEmail -->
<g id="node25" class="node">
<title>FindOneByEmail</title>
<ellipse fill="#fdb462" stroke="black" cx="1087" cy="-172" rx="79.33" ry="18"/>
<text text-anchor="middle" x="1087" y="-167.8" font-family="Times,serif" font-size="14.00">FindOneByEmail</text>
</g>
<!-- FindOneByEmail&#45;&gt;UserModule -->
<g id="edge24" class="edge">
<title>FindOneByEmail&#45;&gt;UserModule</title>
<path fill="none" stroke="black" d="M1087,-190.19C1087,-198.28 1087,-206 1087,-206 1087,-206 1718.75,-206 1718.75,-206 1718.75,-206 1718.75,-219.94 1718.75,-219.94"/>
<polygon fill="black" stroke="black" points="1715.25,-219.94 1718.75,-229.94 1722.25,-219.94 1715.25,-219.94"/>
</g>
<!-- FindOneByGoogleIdProvider -->
<g id="node26" class="node">
<title>FindOneByGoogleIdProvider</title>
<ellipse fill="#fdb462" stroke="black" cx="864" cy="-172" rx="125.65" ry="18"/>
<text text-anchor="middle" x="864" y="-167.8" font-family="Times,serif" font-size="14.00">FindOneByGoogleIdProvider</text>
</g>
<!-- FindOneByGoogleIdProvider&#45;&gt;UserModule -->
<g id="edge25" class="edge">
<title>FindOneByGoogleIdProvider&#45;&gt;UserModule</title>
<path fill="none" stroke="black" d="M864,-190.11C864,-199.9 864,-210 864,-210 864,-210 1712.38,-210 1712.38,-210 1712.38,-210 1712.38,-219.89 1712.38,-219.89"/>
<polygon fill="black" stroke="black" points="1708.88,-219.89 1712.38,-229.89 1715.88,-219.89 1708.88,-219.89"/>
</g>
<!-- UserService -->
<g id="node27" class="node">
<title>UserService</title>
<ellipse fill="#fdb462" stroke="black" cx="1686" cy="-172" rx="58.44" ry="18"/>
<text text-anchor="middle" x="1686" y="-167.8" font-family="Times,serif" font-size="14.00">UserService</text>
</g>
<!-- UserService&#45;&gt;UserModule -->
<g id="edge26" class="edge">
<title>UserService&#45;&gt;UserModule</title>
<path fill="none" stroke="black" d="M1737.85,-180.42C1737.85,-180.42 1737.85,-219.73 1737.85,-219.73"/>
<polygon fill="black" stroke="black" points="1734.35,-219.73 1737.85,-229.73 1741.35,-219.73 1734.35,-219.73"/>
</g>
</g>
</svg>
