<?xml version="1.0" encoding="UTF-8" standalone="no"?>
<!DOCTYPE svg PUBLIC "-//W3C//DTD SVG 1.1//EN"
 "http://www.w3.org/Graphics/SVG/1.1/DTD/svg11.dtd">
<!-- Generated by graphviz version 2.47.0 (20210316.0004)
 -->
<!-- Title: dependencies Pages: 1 -->
<svg width="3666pt" height="355pt"
 viewBox="0.00 0.00 3666.00 355.00" xmlns="http://www.w3.org/2000/svg" xmlns:xlink="http://www.w3.org/1999/xlink">
<g id="graph0" class="graph" transform="scale(1 1) rotate(0) translate(4 351)">
<title>dependencies</title>
<polygon fill="white" stroke="transparent" points="-4,4 -4,-351 3662,-351 3662,4 -4,4"/>
<text text-anchor="start" x="1808.01" y="-42.4" font-family="Times-12" font-weight="bold" font-size="14.00">Legend</text>
<polygon fill="#ffffb3" stroke="transparent" points="1595,-10 1595,-30 1615,-30 1615,-10 1595,-10"/>
<text text-anchor="start" x="1618.63" y="-15.4" font-family="Times-12" font-size="14.00"> &#160;Declarations</text>
<polygon fill="#8dd3c7" stroke="transparent" points="1708,-10 1708,-30 1728,-30 1728,-10 1708,-10"/>
<text text-anchor="start" x="1731.73" y="-15.4" font-family="Times-12" font-size="14.00"> &#160;Module</text>
<polygon fill="#80b1d3" stroke="transparent" points="1794,-10 1794,-30 1814,-30 1814,-10 1794,-10"/>
<text text-anchor="start" x="1817.78" y="-15.4" font-family="Times-12" font-size="14.00"> &#160;Bootstrap</text>
<polygon fill="#fdb462" stroke="transparent" points="1891,-10 1891,-30 1911,-30 1911,-10 1891,-10"/>
<text text-anchor="start" x="1914.67" y="-15.4" font-family="Times-12" font-size="14.00"> &#160;Providers</text>
<polygon fill="#fb8072" stroke="transparent" points="1987,-10 1987,-30 2007,-30 2007,-10 1987,-10"/>
<text text-anchor="start" x="2010.73" y="-15.4" font-family="Times-12" font-size="14.00"> &#160;Exports</text>
<g id="clust1" class="cluster">
<title>cluster_AppModule</title>
<polygon fill="none" stroke="black" stroke-dasharray="1,5" points="1244,-214 1244,-339 2116,-339 2116,-214 1244,-214"/>
</g>
<g id="clust3" class="cluster">
<title>cluster_AppModule_imports</title>
<polygon fill="none" stroke="black" points="1390,-222 1390,-274 2108,-274 2108,-222 1390,-222"/>
</g>
<g id="clust6" class="cluster">
<title>cluster_AppModule_providers</title>
<polygon fill="none" stroke="black" points="1252,-222 1252,-274 1382,-274 1382,-222 1252,-222"/>
</g>
<g id="clust7" class="cluster">
<title>cluster_AuthModule</title>
<polygon fill="none" stroke="black" stroke-dasharray="1,5" points="2202,-138 2202,-206 3484,-206 3484,-138 2202,-138"/>
</g>
<g id="clust10" class="cluster">
<title>cluster_AuthModule_exports</title>
<polygon fill="none" stroke="black" points="2210,-146 2210,-198 2448,-198 2448,-146 2210,-146"/>
</g>
<g id="clust12" class="cluster">
<title>cluster_AuthModule_providers</title>
<polygon fill="none" stroke="black" points="2456,-146 2456,-198 3476,-198 3476,-146 2456,-146"/>
</g>
<g id="clust13" class="cluster">
<title>cluster_ChatModule</title>
<polygon fill="none" stroke="black" stroke-dasharray="1,5" points="1530,-138 1530,-206 1872,-206 1872,-138 1530,-138"/>
</g>
<g id="clust16" class="cluster">
<title>cluster_ChatModule_exports</title>
<polygon fill="none" stroke="black" points="1726,-146 1726,-198 1864,-198 1864,-146 1726,-146"/>
</g>
<g id="clust18" class="cluster">
<title>cluster_ChatModule_providers</title>
<polygon fill="none" stroke="black" points="1538,-146 1538,-198 1718,-198 1718,-146 1538,-146"/>
</g>
<g id="clust19" class="cluster">
<title>cluster_GoogleAuthticationModule</title>
<polygon fill="none" stroke="black" stroke-dasharray="1,5" points="3249,-222 3249,-274 3435,-274 3435,-222 3249,-222"/>
</g>
<g id="clust25" class="cluster">
<title>cluster_MailModule</title>
<polygon fill="none" stroke="black" stroke-dasharray="1,5" points="3492,-70 3492,-282 3650,-282 3650,-70 3492,-70"/>
</g>
<g id="clust28" class="cluster">
<title>cluster_MailModule_exports</title>
<polygon fill="none" stroke="black" points="3508,-222 3508,-274 3618,-274 3618,-222 3508,-222"/>
</g>
<g id="clust30" class="cluster">
<title>cluster_MailModule_providers</title>
<polygon fill="none" stroke="black" points="3500,-78 3500,-130 3642,-130 3642,-78 3500,-78"/>
</g>
<g id="clust31" class="cluster">
<title>cluster_MessageModule</title>
<polygon fill="none" stroke="black" stroke-dasharray="1,5" points="1880,-138 1880,-206 2194,-206 2194,-138 1880,-138"/>
</g>
<g id="clust34" class="cluster">
<title>cluster_MessageModule_exports</title>
<polygon fill="none" stroke="black" points="2060,-146 2060,-198 2186,-198 2186,-146 2060,-146"/>
</g>
<g id="clust36" class="cluster">
<title>cluster_MessageModule_providers</title>
<polygon fill="none" stroke="black" points="1888,-146 1888,-198 2052,-198 2052,-146 1888,-146"/>
</g>
<g id="clust37" class="cluster">
<title>cluster_PaginationModule</title>
<polygon fill="none" stroke="black" stroke-dasharray="1,5" points="8,-138 8,-206 364,-206 364,-138 8,-138"/>
</g>
<g id="clust40" class="cluster">
<title>cluster_PaginationModule_exports</title>
<polygon fill="none" stroke="black" points="212,-146 212,-198 356,-198 356,-146 212,-146"/>
</g>
<g id="clust42" class="cluster">
<title>cluster_PaginationModule_providers</title>
<polygon fill="none" stroke="black" points="16,-146 16,-198 204,-198 204,-146 16,-146"/>
</g>
<g id="clust43" class="cluster">
<title>cluster_UserModule</title>
<polygon fill="none" stroke="black" stroke-dasharray="1,5" points="372,-138 372,-206 1522,-206 1522,-138 372,-138"/>
</g>
<g id="clust46" class="cluster">
<title>cluster_UserModule_exports</title>
<polygon fill="none" stroke="black" points="1410,-146 1410,-198 1514,-198 1514,-146 1410,-146"/>
</g>
<g id="clust48" class="cluster">
<title>cluster_UserModule_providers</title>
<polygon fill="none" stroke="black" points="380,-146 380,-198 1402,-198 1402,-146 380,-146"/>
</g>
<!-- AuthModule -->
<g id="node1" class="node">
<title>AuthModule</title>
<polygon fill="#8dd3c7" stroke="black" points="2099.55,-266 2096.55,-270 2075.55,-270 2072.55,-266 2012.45,-266 2012.45,-230 2099.55,-230 2099.55,-266"/>
<text text-anchor="middle" x="2056" y="-243.8" font-family="Times,serif" font-size="14.00">AuthModule</text>
</g>
<!-- AppModule -->
<g id="node7" class="node">
<title>AppModule</title>
<polygon fill="#8dd3c7" stroke="black" points="1814.66,-331 1811.66,-335 1790.66,-335 1787.66,-331 1731.34,-331 1731.34,-295 1814.66,-295 1814.66,-331"/>
<text text-anchor="middle" x="1773" y="-308.8" font-family="Times,serif" font-size="14.00">AppModule</text>
</g>
<!-- AuthModule&#45;&gt;AppModule -->
<g id="edge1" class="edge">
<title>AuthModule&#45;&gt;AppModule</title>
<path fill="none" stroke="black" d="M2056,-266.28C2056,-287.32 2056,-319 2056,-319 2056,-319 1824.76,-319 1824.76,-319"/>
<polygon fill="black" stroke="black" points="1824.76,-315.5 1814.76,-319 1824.76,-322.5 1824.76,-315.5"/>
</g>
<!-- AuthService  -->
<g id="node9" class="node">
<title>AuthService </title>
<polygon fill="#fb8072" stroke="black" points="2439.98,-190 2350.02,-190 2350.02,-154 2439.98,-154 2439.98,-190"/>
<text text-anchor="middle" x="2395" y="-167.8" font-family="Times,serif" font-size="14.00">AuthService </text>
</g>
<!-- AuthModule&#45;&gt;AuthService  -->
<g id="edge9" class="edge">
<title>AuthModule&#45;&gt;AuthService </title>
<path fill="none" stroke="black" stroke-dasharray="5,2" d="M2099.62,-239C2191.18,-239 2395,-239 2395,-239 2395,-239 2395,-200.31 2395,-200.31"/>
<polygon fill="black" stroke="black" points="2398.5,-200.31 2395,-190.31 2391.5,-200.31 2398.5,-200.31"/>
</g>
<!-- HashingProvider  -->
<g id="node10" class="node">
<title>HashingProvider </title>
<polygon fill="#fb8072" stroke="black" points="2332.37,-190 2217.63,-190 2217.63,-154 2332.37,-154 2332.37,-190"/>
<text text-anchor="middle" x="2275" y="-167.8" font-family="Times,serif" font-size="14.00">HashingProvider </text>
</g>
<!-- AuthModule&#45;&gt;HashingProvider  -->
<g id="edge10" class="edge">
<title>AuthModule&#45;&gt;HashingProvider </title>
<path fill="none" stroke="black" stroke-dasharray="5,2" d="M2099.79,-235C2163.7,-235 2275,-235 2275,-235 2275,-235 2275,-200.22 2275,-200.22"/>
<polygon fill="black" stroke="black" points="2278.5,-200.22 2275,-190.22 2271.5,-200.22 2278.5,-200.22"/>
</g>
<!-- ChatModule -->
<g id="node2" class="node">
<title>ChatModule</title>
<polygon fill="#8dd3c7" stroke="black" points="1867.99,-266 1864.99,-270 1843.99,-270 1840.99,-266 1782.01,-266 1782.01,-230 1867.99,-230 1867.99,-266"/>
<text text-anchor="middle" x="1825" y="-243.8" font-family="Times,serif" font-size="14.00">ChatModule</text>
</g>
<!-- ChatModule&#45;&gt;AppModule -->
<g id="edge2" class="edge">
<title>ChatModule&#45;&gt;AppModule</title>
<path fill="none" stroke="black" d="M1792.95,-266.11C1792.95,-266.11 1792.95,-284.99 1792.95,-284.99"/>
<polygon fill="black" stroke="black" points="1789.45,-284.99 1792.95,-294.99 1796.45,-284.99 1789.45,-284.99"/>
</g>
<!-- ChatModule&#45;&gt;AppModule -->
<g id="edge3" class="edge">
<title>ChatModule&#45;&gt;AppModule</title>
<path fill="none" stroke="black" d="M1803.89,-266.11C1803.89,-266.11 1803.89,-284.99 1803.89,-284.99"/>
<polygon fill="black" stroke="black" points="1800.39,-284.99 1803.89,-294.99 1807.39,-284.99 1800.39,-284.99"/>
</g>
<!-- ChatRoomService  -->
<g id="node16" class="node">
<title>ChatRoomService </title>
<polygon fill="#fb8072" stroke="black" points="1856.15,-190 1733.85,-190 1733.85,-154 1856.15,-154 1856.15,-190"/>
<text text-anchor="middle" x="1795" y="-167.8" font-family="Times,serif" font-size="14.00">ChatRoomService </text>
</g>
<!-- ChatModule&#45;&gt;ChatRoomService  -->
<g id="edge16" class="edge">
<title>ChatModule&#45;&gt;ChatRoomService </title>
<path fill="none" stroke="black" stroke-dasharray="5,2" d="M1831.38,-229.99C1831.38,-229.99 1831.38,-200.15 1831.38,-200.15"/>
<polygon fill="black" stroke="black" points="1834.88,-200.15 1831.38,-190.15 1827.88,-200.15 1834.88,-200.15"/>
</g>
<!-- MessageModule -->
<g id="node3" class="node">
<title>MessageModule</title>
<polygon fill="#8dd3c7" stroke="black" points="1994.03,-266 1991.03,-270 1970.03,-270 1967.03,-266 1885.97,-266 1885.97,-230 1994.03,-230 1994.03,-266"/>
<text text-anchor="middle" x="1940" y="-243.8" font-family="Times,serif" font-size="14.00">MessageModule</text>
</g>
<!-- MessageModule&#45;&gt;AppModule -->
<g id="edge4" class="edge">
<title>MessageModule&#45;&gt;AppModule</title>
<path fill="none" stroke="black" d="M1940,-266.02C1940,-283.37 1940,-307 1940,-307 1940,-307 1824.71,-307 1824.71,-307"/>
<polygon fill="black" stroke="black" points="1824.71,-303.5 1814.71,-307 1824.71,-310.5 1824.71,-303.5"/>
</g>
<!-- MessageService  -->
<g id="node22" class="node">
<title>MessageService </title>
<polygon fill="#fb8072" stroke="black" points="2178.46,-190 2067.54,-190 2067.54,-154 2178.46,-154 2178.46,-190"/>
<text text-anchor="middle" x="2123" y="-167.8" font-family="Times,serif" font-size="14.00">MessageService </text>
</g>
<!-- MessageModule&#45;&gt;MessageService  -->
<g id="edge21" class="edge">
<title>MessageModule&#45;&gt;MessageService </title>
<path fill="none" stroke="black" stroke-dasharray="5,2" d="M1961.58,-229.92C1961.58,-228.15 1961.58,-227 1961.58,-227 1961.58,-227 2083.77,-227 2083.77,-227 2083.77,-227 2083.77,-200.01 2083.77,-200.01"/>
<polygon fill="black" stroke="black" points="2087.27,-200.01 2083.77,-190.01 2080.27,-200.01 2087.27,-200.01"/>
</g>
<!-- PaginationModule -->
<g id="node4" class="node">
<title>PaginationModule</title>
<polygon fill="#8dd3c7" stroke="black" points="1659.93,-266 1656.93,-270 1635.93,-270 1632.93,-266 1540.07,-266 1540.07,-230 1659.93,-230 1659.93,-266"/>
<text text-anchor="middle" x="1600" y="-243.8" font-family="Times,serif" font-size="14.00">PaginationModule</text>
</g>
<!-- PaginationModule&#45;&gt;AppModule -->
<g id="edge5" class="edge">
<title>PaginationModule&#45;&gt;AppModule</title>
<path fill="none" stroke="black" d="M1600,-266.03C1600,-282.4 1600,-304 1600,-304 1600,-304 1721.12,-304 1721.12,-304"/>
<polygon fill="black" stroke="black" points="1721.12,-307.5 1731.12,-304 1721.12,-300.5 1721.12,-307.5"/>
</g>
<!-- PaginationProvider  -->
<g id="node24" class="node">
<title>PaginationProvider </title>
<polygon fill="#fb8072" stroke="black" points="347.59,-190 220.41,-190 220.41,-154 347.59,-154 347.59,-190"/>
<text text-anchor="middle" x="284" y="-167.8" font-family="Times,serif" font-size="14.00">PaginationProvider </text>
</g>
<!-- PaginationModule&#45;&gt;PaginationProvider  -->
<g id="edge23" class="edge">
<title>PaginationModule&#45;&gt;PaginationProvider </title>
<path fill="none" stroke="black" stroke-dasharray="5,2" d="M1621.86,-229.79C1621.86,-224.45 1621.86,-220 1621.86,-220 1621.86,-220 284,-220 284,-220 284,-220 284,-200.15 284,-200.15"/>
<polygon fill="black" stroke="black" points="287.5,-200.15 284,-190.15 280.5,-200.15 287.5,-200.15"/>
</g>
<!-- UserModule -->
<g id="node5" class="node">
<title>UserModule</title>
<polygon fill="#8dd3c7" stroke="black" points="1763.98,-266 1760.98,-270 1739.98,-270 1736.98,-266 1678.02,-266 1678.02,-230 1763.98,-230 1763.98,-266"/>
<text text-anchor="middle" x="1721" y="-243.8" font-family="Times,serif" font-size="14.00">UserModule</text>
</g>
<!-- UserModule&#45;&gt;AppModule -->
<g id="edge6" class="edge">
<title>UserModule&#45;&gt;AppModule</title>
<path fill="none" stroke="black" d="M1747.58,-266.11C1747.58,-266.11 1747.58,-284.99 1747.58,-284.99"/>
<polygon fill="black" stroke="black" points="1744.08,-284.99 1747.58,-294.99 1751.08,-284.99 1744.08,-284.99"/>
</g>
<!-- UserService  -->
<g id="node26" class="node">
<title>UserService </title>
<polygon fill="#fb8072" stroke="black" points="1505.9,-190 1418.1,-190 1418.1,-154 1505.9,-154 1505.9,-190"/>
<text text-anchor="middle" x="1462" y="-167.8" font-family="Times,serif" font-size="14.00">UserService </text>
</g>
<!-- UserModule&#45;&gt;UserService  -->
<g id="edge26" class="edge">
<title>UserModule&#45;&gt;UserService </title>
<path fill="none" stroke="black" stroke-dasharray="5,2" d="M1701.88,-229.85C1701.88,-216.26 1701.88,-200 1701.88,-200 1701.88,-200 1462,-200 1462,-200 1462,-200 1462,-199.02 1462,-199.02"/>
<polygon fill="black" stroke="black" points="1465.5,-200.21 1462,-190.21 1458.5,-200.21 1465.5,-200.21"/>
</g>
<!-- WebSocketModule -->
<g id="node6" class="node">
<title>WebSocketModule</title>
<polygon fill="#8dd3c7" stroke="black" points="1522.08,-266 1519.08,-270 1498.08,-270 1495.08,-266 1397.92,-266 1397.92,-230 1522.08,-230 1522.08,-266"/>
<text text-anchor="middle" x="1460" y="-243.8" font-family="Times,serif" font-size="14.00">WebSocketModule</text>
</g>
<!-- WebSocketModule&#45;&gt;AppModule -->
<g id="edge7" class="edge">
<title>WebSocketModule&#45;&gt;AppModule</title>
<path fill="none" stroke="black" d="M1460,-266.11C1460,-285.34 1460,-313 1460,-313 1460,-313 1721.11,-313 1721.11,-313"/>
<polygon fill="black" stroke="black" points="1721.11,-316.5 1731.11,-313 1721.11,-309.5 1721.11,-316.5"/>
</g>
<!-- AppService -->
<g id="node8" class="node">
<title>AppService</title>
<ellipse fill="#fdb462" stroke="black" cx="1317" cy="-248" rx="56.74" ry="18"/>
<text text-anchor="middle" x="1317" y="-243.8" font-family="Times,serif" font-size="14.00">AppService</text>
</g>
<!-- AppService&#45;&gt;AppModule -->
<g id="edge8" class="edge">
<title>AppService&#45;&gt;AppModule</title>
<path fill="none" stroke="black" d="M1317,-266.29C1317,-288.21 1317,-322 1317,-322 1317,-322 1721.32,-322 1721.32,-322"/>
<polygon fill="black" stroke="black" points="1721.32,-325.5 1731.32,-322 1721.32,-318.5 1721.32,-325.5"/>
</g>
<!-- AuthService -->
<g id="node11" class="node">
<title>AuthService</title>
<ellipse fill="#fdb462" stroke="black" cx="2757" cy="-172" rx="59.11" ry="18"/>
<text text-anchor="middle" x="2757" y="-167.8" font-family="Times,serif" font-size="14.00">AuthService</text>
</g>
<!-- AuthService&#45;&gt;AuthModule -->
<g id="edge11" class="edge">
<title>AuthService&#45;&gt;AuthModule</title>
<path fill="none" stroke="black" d="M2757,-190.01C2757,-212.49 2757,-248 2757,-248 2757,-248 2109.59,-248 2109.59,-248"/>
<polygon fill="black" stroke="black" points="2109.59,-244.5 2099.59,-248 2109.59,-251.5 2109.59,-244.5"/>
</g>
<!-- GenerateTokensProvider -->
<g id="node12" class="node">
<title>GenerateTokensProvider</title>
<ellipse fill="#fdb462" stroke="black" cx="2572" cy="-172" rx="107.63" ry="18"/>
<text text-anchor="middle" x="2572" y="-167.8" font-family="Times,serif" font-size="14.00">GenerateTokensProvider</text>
</g>
<!-- GenerateTokensProvider&#45;&gt;AuthModule -->
<g id="edge12" class="edge">
<title>GenerateTokensProvider&#45;&gt;AuthModule</title>
<path fill="none" stroke="black" d="M2572,-190.17C2572,-211.5 2572,-244 2572,-244 2572,-244 2109.55,-244 2109.55,-244"/>
<polygon fill="black" stroke="black" points="2109.55,-240.5 2099.55,-244 2109.55,-247.5 2109.55,-240.5"/>
</g>
<!-- GoogleAuthenticationService -->
<g id="node13" class="node">
<title>GoogleAuthenticationService</title>
<ellipse fill="#fdb462" stroke="black" cx="3342" cy="-172" rx="125.62" ry="18"/>
<text text-anchor="middle" x="3342" y="-167.8" font-family="Times,serif" font-size="14.00">GoogleAuthenticationService</text>
</g>
<!-- GoogleAuthenticationService&#45;&gt;AuthModule -->
<g id="edge13" class="edge">
<title>GoogleAuthenticationService&#45;&gt;AuthModule</title>
<path fill="none" stroke="black" d="M3236.41,-181.98C3236.41,-205.41 3236.41,-262 3236.41,-262 3236.41,-262 2109.76,-262 2109.76,-262"/>
<polygon fill="black" stroke="black" points="2109.76,-258.5 2099.76,-262 2109.76,-265.5 2109.76,-258.5"/>
</g>
<!-- GoogleAuthticationModule -->
<g id="node18" class="node">
<title>GoogleAuthticationModule</title>
<polygon fill="#8dd3c7" stroke="black" points="3427.25,-266 3424.25,-270 3403.25,-270 3400.25,-266 3256.75,-266 3256.75,-230 3427.25,-230 3427.25,-266"/>
<text text-anchor="middle" x="3342" y="-243.8" font-family="Times,serif" font-size="14.00">GoogleAuthticationModule</text>
</g>
<!-- GoogleAuthenticationService&#45;&gt;GoogleAuthticationModule -->
<g id="edge18" class="edge">
<title>GoogleAuthenticationService&#45;&gt;GoogleAuthticationModule</title>
<path fill="none" stroke="black" d="M3342,-190.01C3342,-190.01 3342,-219.85 3342,-219.85"/>
<polygon fill="black" stroke="black" points="3338.5,-219.85 3342,-229.85 3345.5,-219.85 3338.5,-219.85"/>
</g>
<!-- RefreshTokensProvider -->
<g id="node14" class="node">
<title>RefreshTokensProvider</title>
<ellipse fill="#fdb462" stroke="black" cx="2937" cy="-172" rx="102.99" ry="18"/>
<text text-anchor="middle" x="2937" y="-167.8" font-family="Times,serif" font-size="14.00">RefreshTokensProvider</text>
</g>
<!-- RefreshTokensProvider&#45;&gt;AuthModule -->
<g id="edge14" class="edge">
<title>RefreshTokensProvider&#45;&gt;AuthModule</title>
<path fill="none" stroke="black" d="M2937,-190.38C2937,-214.28 2937,-253 2937,-253 2937,-253 2109.69,-253 2109.69,-253"/>
<polygon fill="black" stroke="black" points="2109.69,-249.5 2099.69,-253 2109.69,-256.5 2109.69,-249.5"/>
</g>
<!-- SignInProvider -->
<g id="node15" class="node">
<title>SignInProvider</title>
<ellipse fill="#fdb462" stroke="black" cx="3128" cy="-172" rx="70.08" ry="18"/>
<text text-anchor="middle" x="3128" y="-167.8" font-family="Times,serif" font-size="14.00">SignInProvider</text>
</g>
<!-- SignInProvider&#45;&gt;AuthModule -->
<g id="edge15" class="edge">
<title>SignInProvider&#45;&gt;AuthModule</title>
<path fill="none" stroke="black" d="M3128,-190.03C3128,-214.98 3128,-257 3128,-257 3128,-257 2109.69,-257 2109.69,-257"/>
<polygon fill="black" stroke="black" points="2109.69,-253.5 2099.69,-257 2109.69,-260.5 2109.69,-253.5"/>
</g>
<!-- ChatRoomService -->
<g id="node17" class="node">
<title>ChatRoomService</title>
<ellipse fill="#fdb462" stroke="black" cx="1628" cy="-172" rx="81.68" ry="18"/>
<text text-anchor="middle" x="1628" y="-167.8" font-family="Times,serif" font-size="14.00">ChatRoomService</text>
</g>
<!-- ChatRoomService&#45;&gt;ChatModule -->
<g id="edge17" class="edge">
<title>ChatRoomService&#45;&gt;ChatModule</title>
<path fill="none" stroke="black" d="M1705.86,-177.8C1705.86,-185.18 1705.86,-197 1705.86,-197 1705.86,-197 1806.69,-197 1806.69,-197 1806.69,-197 1806.69,-219.88 1806.69,-219.88"/>
<polygon fill="black" stroke="black" points="1803.19,-219.88 1806.69,-229.88 1810.19,-219.88 1803.19,-219.88"/>
</g>
<!-- MailProvider  -->
<g id="node19" class="node">
<title>MailProvider </title>
<polygon fill="#fb8072" stroke="black" points="3610.15,-266 3515.85,-266 3515.85,-230 3610.15,-230 3610.15,-266"/>
<text text-anchor="middle" x="3563" y="-243.8" font-family="Times,serif" font-size="14.00">MailProvider </text>
</g>
<!-- MailModule -->
<g id="node20" class="node">
<title>MailModule</title>
<polygon fill="#8dd3c7" stroke="black" points="3605.99,-190 3602.99,-194 3581.99,-194 3578.99,-190 3520.01,-190 3520.01,-154 3605.99,-154 3605.99,-190"/>
<text text-anchor="middle" x="3563" y="-167.8" font-family="Times,serif" font-size="14.00">MailModule</text>
</g>
<!-- MailModule&#45;&gt;UserModule -->
<g id="edge25" class="edge">
<title>MailModule&#45;&gt;UserModule</title>
<path fill="none" stroke="black" d="M3548.67,-190.17C3548.67,-192.45 3548.67,-194 3548.67,-194 3548.67,-194 1748.96,-194 1748.96,-194 1748.96,-194 1748.96,-219.72 1748.96,-219.72"/>
<polygon fill="black" stroke="black" points="1745.46,-219.72 1748.96,-229.72 1752.46,-219.72 1745.46,-219.72"/>
</g>
<!-- MailModule&#45;&gt;MailProvider  -->
<g id="edge19" class="edge">
<title>MailModule&#45;&gt;MailProvider </title>
<path fill="none" stroke="black" stroke-dasharray="5,2" d="M3577.33,-190.01C3577.33,-190.01 3577.33,-219.85 3577.33,-219.85"/>
<polygon fill="black" stroke="black" points="3573.83,-219.85 3577.33,-229.85 3580.83,-219.85 3573.83,-219.85"/>
</g>
<!-- MailProvider -->
<g id="node21" class="node">
<title>MailProvider</title>
<ellipse fill="#fdb462" stroke="black" cx="3571" cy="-104" rx="62.56" ry="18"/>
<text text-anchor="middle" x="3571" y="-99.8" font-family="Times,serif" font-size="14.00">MailProvider</text>
</g>
<!-- MailProvider&#45;&gt;MailModule -->
<g id="edge20" class="edge">
<title>MailProvider&#45;&gt;MailModule</title>
<path fill="none" stroke="black" d="M3563,-121.87C3563,-121.87 3563,-143.54 3563,-143.54"/>
<polygon fill="black" stroke="black" points="3559.5,-143.54 3563,-153.54 3566.5,-143.54 3559.5,-143.54"/>
</g>
<!-- MessageService -->
<g id="node23" class="node">
<title>MessageService</title>
<ellipse fill="#fdb462" stroke="black" cx="1970" cy="-172" rx="73.55" ry="18"/>
<text text-anchor="middle" x="1970" y="-167.8" font-family="Times,serif" font-size="14.00">MessageService</text>
</g>
<!-- MessageService&#45;&gt;MessageModule -->
<g id="edge22" class="edge">
<title>MessageService&#45;&gt;MessageModule</title>
<path fill="none" stroke="black" d="M1928.9,-187.02C1928.9,-187.02 1928.9,-219.8 1928.9,-219.8"/>
<polygon fill="black" stroke="black" points="1925.4,-219.8 1928.9,-229.8 1932.4,-219.8 1925.4,-219.8"/>
</g>
<!-- PaginationProvider -->
<g id="node25" class="node">
<title>PaginationProvider</title>
<ellipse fill="#fdb462" stroke="black" cx="110" cy="-172" rx="85.69" ry="18"/>
<text text-anchor="middle" x="110" y="-167.8" font-family="Times,serif" font-size="14.00">PaginationProvider</text>
</g>
<!-- PaginationProvider&#45;&gt;PaginationModule -->
<g id="edge24" class="edge">
<title>PaginationProvider&#45;&gt;PaginationModule</title>
<path fill="none" stroke="black" d="M110,-190.19C110,-205.18 110,-224 110,-224 110,-224 1584.01,-224 1584.01,-224 1584.01,-224 1584.01,-224.58 1584.01,-224.58"/>
<polygon fill="black" stroke="black" points="1580.51,-219.81 1584.01,-229.81 1587.51,-219.81 1580.51,-219.81"/>
</g>
<!-- CreateGoogleUserProvider -->
<g id="node27" class="node">
<title>CreateGoogleUserProvider</title>
<ellipse fill="#fdb462" stroke="black" cx="1278" cy="-172" rx="116.29" ry="18"/>
<text text-anchor="middle" x="1278" y="-167.8" font-family="Times,serif" font-size="14.00">CreateGoogleUserProvider</text>
</g>
<!-- CreateGoogleUserProvider&#45;&gt;UserModule -->
<g id="edge27" class="edge">
<title>CreateGoogleUserProvider&#45;&gt;UserModule</title>
<path fill="none" stroke="black" d="M1383.88,-179.42C1383.88,-188.88 1383.88,-204 1383.88,-204 1383.88,-204 1697.9,-204 1697.9,-204 1697.9,-204 1697.9,-219.85 1697.9,-219.85"/>
<polygon fill="black" stroke="black" points="1694.4,-219.85 1697.9,-229.85 1701.4,-219.85 1694.4,-219.85"/>
</g>
<!-- CreateUserProvider -->
<g id="node28" class="node">
<title>CreateUserProvider</title>
<ellipse fill="#fdb462" stroke="black" cx="1056" cy="-172" rx="87.94" ry="18"/>
<text text-anchor="middle" x="1056" y="-167.8" font-family="Times,serif" font-size="14.00">CreateUserProvider</text>
</g>
<!-- CreateUserProvider&#45;&gt;UserModule -->
<g id="edge28" class="edge">
<title>CreateUserProvider&#45;&gt;UserModule</title>
<path fill="none" stroke="black" d="M1056,-190.32C1056,-198.79 1056,-207 1056,-207 1056,-207 1693.93,-207 1693.93,-207 1693.93,-207 1693.93,-219.9 1693.93,-219.9"/>
<polygon fill="black" stroke="black" points="1690.43,-219.9 1693.93,-229.9 1697.43,-219.9 1690.43,-219.9"/>
</g>
<!-- FindOneByEmail -->
<g id="node29" class="node">
<title>FindOneByEmail</title>
<ellipse fill="#fdb462" stroke="black" cx="871" cy="-172" rx="79.33" ry="18"/>
<text text-anchor="middle" x="871" y="-167.8" font-family="Times,serif" font-size="14.00">FindOneByEmail</text>
</g>
<!-- FindOneByEmail&#45;&gt;UserModule -->
<g id="edge29" class="edge">
<title>FindOneByEmail&#45;&gt;UserModule</title>
<path fill="none" stroke="black" d="M871,-190.11C871,-199.9 871,-210 871,-210 871,-210 1689.95,-210 1689.95,-210 1689.95,-210 1689.95,-219.89 1689.95,-219.89"/>
<polygon fill="black" stroke="black" points="1686.45,-219.89 1689.95,-229.89 1693.45,-219.89 1686.45,-219.89"/>
</g>
<!-- FindOneByGoogleIdProvider -->
<g id="node30" class="node">
<title>FindOneByGoogleIdProvider</title>
<ellipse fill="#fdb462" stroke="black" cx="648" cy="-172" rx="125.65" ry="18"/>
<text text-anchor="middle" x="648" y="-167.8" font-family="Times,serif" font-size="14.00">FindOneByGoogleIdProvider</text>
</g>
<!-- FindOneByGoogleIdProvider&#45;&gt;UserModule -->
<g id="edge30" class="edge">
<title>FindOneByGoogleIdProvider&#45;&gt;UserModule</title>
<path fill="none" stroke="black" d="M648,-190.06C648,-201.44 648,-214 648,-214 648,-214 1685.97,-214 1685.97,-214 1685.97,-214 1685.97,-219.81 1685.97,-219.81"/>
<polygon fill="black" stroke="black" points="1682.47,-219.81 1685.97,-229.81 1689.47,-219.81 1682.47,-219.81"/>
</g>
<!-- UserService -->
<g id="node31" class="node">
<title>UserService</title>
<ellipse fill="#fdb462" stroke="black" cx="446" cy="-172" rx="58.44" ry="18"/>
<text text-anchor="middle" x="446" y="-167.8" font-family="Times,serif" font-size="14.00">UserService</text>
</g>
<!-- UserService&#45;&gt;UserModule -->
<g id="edge31" class="edge">
<title>UserService&#45;&gt;UserModule</title>
<path fill="none" stroke="black" d="M446,-190.04C446,-202.56 446,-217 446,-217 446,-217 1681.99,-217 1681.99,-217 1681.99,-217 1681.99,-219.97 1681.99,-219.97"/>
<polygon fill="black" stroke="black" points="1678.49,-219.97 1681.99,-229.97 1685.49,-219.97 1678.49,-219.97"/>
</g>
</g>
</svg>
