<?xml version="1.0" encoding="UTF-8" standalone="no"?>
<!DOCTYPE svg PUBLIC "-//W3C//DTD SVG 1.1//EN"
 "http://www.w3.org/Graphics/SVG/1.1/DTD/svg11.dtd">
<!-- Generated by graphviz version 2.47.0 (20210316.0004)
 -->
<!-- Title: dependencies Pages: 1 -->
<svg width="3872pt" height="366pt"
 viewBox="0.00 0.00 3872.00 366.00" xmlns="http://www.w3.org/2000/svg" xmlns:xlink="http://www.w3.org/1999/xlink">
<g id="graph0" class="graph" transform="scale(1 1) rotate(0) translate(4 362)">
<title>dependencies</title>
<polygon fill="white" stroke="transparent" points="-4,4 -4,-362 3868,-362 3868,4 -4,4"/>
<text text-anchor="start" x="1911.01" y="-42.4" font-family="Times-12" font-weight="bold" font-size="14.00">Legend</text>
<polygon fill="#ffffb3" stroke="transparent" points="1698,-10 1698,-30 1718,-30 1718,-10 1698,-10"/>
<text text-anchor="start" x="1721.63" y="-15.4" font-family="Times-12" font-size="14.00"> &#160;Declarations</text>
<polygon fill="#8dd3c7" stroke="transparent" points="1811,-10 1811,-30 1831,-30 1831,-10 1811,-10"/>
<text text-anchor="start" x="1834.73" y="-15.4" font-family="Times-12" font-size="14.00"> &#160;Module</text>
<polygon fill="#80b1d3" stroke="transparent" points="1897,-10 1897,-30 1917,-30 1917,-10 1897,-10"/>
<text text-anchor="start" x="1920.78" y="-15.4" font-family="Times-12" font-size="14.00"> &#160;Bootstrap</text>
<polygon fill="#fdb462" stroke="transparent" points="1994,-10 1994,-30 2014,-30 2014,-10 1994,-10"/>
<text text-anchor="start" x="2017.67" y="-15.4" font-family="Times-12" font-size="14.00"> &#160;Providers</text>
<polygon fill="#fb8072" stroke="transparent" points="2090,-10 2090,-30 2110,-30 2110,-10 2090,-10"/>
<text text-anchor="start" x="2113.73" y="-15.4" font-family="Times-12" font-size="14.00"> &#160;Exports</text>
<g id="clust1" class="cluster">
<title>cluster_AppModule</title>
<polygon fill="none" stroke="black" stroke-dasharray="1,5" points="1243,-214 1243,-342 2115,-342 2115,-214 1243,-214"/>
</g>
<g id="clust3" class="cluster">
<title>cluster_AppModule_imports</title>
<polygon fill="none" stroke="black" points="1389,-222 1389,-274 2107,-274 2107,-222 1389,-222"/>
</g>
<g id="clust6" class="cluster">
<title>cluster_AppModule_providers</title>
<polygon fill="none" stroke="black" points="1251,-222 1251,-274 1381,-274 1381,-222 1251,-222"/>
</g>
<g id="clust7" class="cluster">
<title>cluster_AuthModule</title>
<polygon fill="none" stroke="black" stroke-dasharray="1,5" points="2202,-138 2202,-206 3484,-206 3484,-138 2202,-138"/>
</g>
<g id="clust10" class="cluster">
<title>cluster_AuthModule_exports</title>
<polygon fill="none" stroke="black" points="2210,-146 2210,-198 2448,-198 2448,-146 2210,-146"/>
</g>
<g id="clust12" class="cluster">
<title>cluster_AuthModule_providers</title>
<polygon fill="none" stroke="black" points="2456,-146 2456,-198 3476,-198 3476,-146 2456,-146"/>
</g>
<g id="clust13" class="cluster">
<title>cluster_ChatModule</title>
<polygon fill="none" stroke="black" stroke-dasharray="1,5" points="1852,-138 1852,-206 2194,-206 2194,-138 1852,-138"/>
</g>
<g id="clust16" class="cluster">
<title>cluster_ChatModule_exports</title>
<polygon fill="none" stroke="black" points="2048,-146 2048,-198 2186,-198 2186,-146 2048,-146"/>
</g>
<g id="clust18" class="cluster">
<title>cluster_ChatModule_providers</title>
<polygon fill="none" stroke="black" points="1860,-146 1860,-198 2040,-198 2040,-146 1860,-146"/>
</g>
<g id="clust19" class="cluster">
<title>cluster_CloudinaryModule</title>
<polygon fill="none" stroke="black" stroke-dasharray="1,5" points="3492,-138 3492,-350 3690,-350 3690,-138 3492,-138"/>
</g>
<g id="clust22" class="cluster">
<title>cluster_CloudinaryModule_exports</title>
<polygon fill="none" stroke="black" points="3521,-290 3521,-342 3661,-342 3661,-290 3521,-290"/>
</g>
<g id="clust24" class="cluster">
<title>cluster_CloudinaryModule_providers</title>
<polygon fill="none" stroke="black" points="3500,-146 3500,-198 3682,-198 3682,-146 3500,-146"/>
</g>
<g id="clust25" class="cluster">
<title>cluster_GoogleAuthticationModule</title>
<polygon fill="none" stroke="black" stroke-dasharray="1,5" points="3249,-222 3249,-274 3435,-274 3435,-222 3249,-222"/>
</g>
<g id="clust31" class="cluster">
<title>cluster_MailModule</title>
<polygon fill="none" stroke="black" stroke-dasharray="1,5" points="3698,-70 3698,-282 3856,-282 3856,-70 3698,-70"/>
</g>
<g id="clust34" class="cluster">
<title>cluster_MailModule_exports</title>
<polygon fill="none" stroke="black" points="3714,-222 3714,-274 3824,-274 3824,-222 3714,-222"/>
</g>
<g id="clust36" class="cluster">
<title>cluster_MailModule_providers</title>
<polygon fill="none" stroke="black" points="3706,-78 3706,-130 3848,-130 3848,-78 3706,-78"/>
</g>
<g id="clust37" class="cluster">
<title>cluster_MessageModule</title>
<polygon fill="none" stroke="black" stroke-dasharray="1,5" points="8,-138 8,-206 322,-206 322,-138 8,-138"/>
</g>
<g id="clust40" class="cluster">
<title>cluster_MessageModule_exports</title>
<polygon fill="none" stroke="black" points="188,-146 188,-198 314,-198 314,-146 188,-146"/>
</g>
<g id="clust42" class="cluster">
<title>cluster_MessageModule_providers</title>
<polygon fill="none" stroke="black" points="16,-146 16,-198 180,-198 180,-146 16,-146"/>
</g>
<g id="clust43" class="cluster">
<title>cluster_PaginationModule</title>
<polygon fill="none" stroke="black" stroke-dasharray="1,5" points="330,-138 330,-206 686,-206 686,-138 330,-138"/>
</g>
<g id="clust46" class="cluster">
<title>cluster_PaginationModule_exports</title>
<polygon fill="none" stroke="black" points="534,-146 534,-198 678,-198 678,-146 534,-146"/>
</g>
<g id="clust48" class="cluster">
<title>cluster_PaginationModule_providers</title>
<polygon fill="none" stroke="black" points="338,-146 338,-198 526,-198 526,-146 338,-146"/>
</g>
<g id="clust49" class="cluster">
<title>cluster_UserModule</title>
<polygon fill="none" stroke="black" stroke-dasharray="1,5" points="694,-138 694,-206 1844,-206 1844,-138 694,-138"/>
</g>
<g id="clust52" class="cluster">
<title>cluster_UserModule_exports</title>
<polygon fill="none" stroke="black" points="1732,-146 1732,-198 1836,-198 1836,-146 1732,-146"/>
</g>
<g id="clust54" class="cluster">
<title>cluster_UserModule_providers</title>
<polygon fill="none" stroke="black" points="702,-146 702,-198 1724,-198 1724,-146 702,-146"/>
</g>
<!-- AuthModule -->
<g id="node1" class="node">
<title>AuthModule</title>
<polygon fill="#8dd3c7" stroke="black" points="2098.55,-266 2095.55,-270 2074.55,-270 2071.55,-266 2011.45,-266 2011.45,-230 2098.55,-230 2098.55,-266"/>
<text text-anchor="middle" x="2055" y="-243.8" font-family="Times,serif" font-size="14.00">AuthModule</text>
</g>
<!-- AppModule -->
<g id="node7" class="node">
<title>AppModule</title>
<polygon fill="#8dd3c7" stroke="black" points="1826.66,-334 1823.66,-338 1802.66,-338 1799.66,-334 1743.34,-334 1743.34,-298 1826.66,-298 1826.66,-334"/>
<text text-anchor="middle" x="1785" y="-311.8" font-family="Times,serif" font-size="14.00">AppModule</text>
</g>
<!-- AuthModule&#45;&gt;AppModule -->
<g id="edge1" class="edge">
<title>AuthModule&#45;&gt;AppModule</title>
<path fill="none" stroke="black" d="M2055,-266.25C2055,-289.02 2055,-325 2055,-325 2055,-325 1836.89,-325 1836.89,-325"/>
<polygon fill="black" stroke="black" points="1836.89,-321.5 1826.89,-325 1836.89,-328.5 1836.89,-321.5"/>
</g>
<!-- AuthService  -->
<g id="node9" class="node">
<title>AuthService </title>
<polygon fill="#fb8072" stroke="black" points="2439.98,-190 2350.02,-190 2350.02,-154 2439.98,-154 2439.98,-190"/>
<text text-anchor="middle" x="2395" y="-167.8" font-family="Times,serif" font-size="14.00">AuthService </text>
</g>
<!-- AuthModule&#45;&gt;AuthService  -->
<g id="edge9" class="edge">
<title>AuthModule&#45;&gt;AuthService </title>
<path fill="none" stroke="black" stroke-dasharray="5,2" d="M2098.75,-239C2190.58,-239 2395,-239 2395,-239 2395,-239 2395,-200.31 2395,-200.31"/>
<polygon fill="black" stroke="black" points="2398.5,-200.31 2395,-190.31 2391.5,-200.31 2398.5,-200.31"/>
</g>
<!-- HashingProvider  -->
<g id="node10" class="node">
<title>HashingProvider </title>
<polygon fill="#fb8072" stroke="black" points="2332.37,-190 2217.63,-190 2217.63,-154 2332.37,-154 2332.37,-190"/>
<text text-anchor="middle" x="2275" y="-167.8" font-family="Times,serif" font-size="14.00">HashingProvider </text>
</g>
<!-- AuthModule&#45;&gt;HashingProvider  -->
<g id="edge10" class="edge">
<title>AuthModule&#45;&gt;HashingProvider </title>
<path fill="none" stroke="black" stroke-dasharray="5,2" d="M2098.73,-235C2162.89,-235 2275,-235 2275,-235 2275,-235 2275,-200.22 2275,-200.22"/>
<polygon fill="black" stroke="black" points="2278.5,-200.22 2275,-190.22 2271.5,-200.22 2278.5,-200.22"/>
</g>
<!-- ChatModule -->
<g id="node2" class="node">
<title>ChatModule</title>
<polygon fill="#8dd3c7" stroke="black" points="1992.99,-266 1989.99,-270 1968.99,-270 1965.99,-266 1907.01,-266 1907.01,-230 1992.99,-230 1992.99,-266"/>
<text text-anchor="middle" x="1950" y="-243.8" font-family="Times,serif" font-size="14.00">ChatModule</text>
</g>
<!-- ChatModule&#45;&gt;AppModule -->
<g id="edge2" class="edge">
<title>ChatModule&#45;&gt;AppModule</title>
<path fill="none" stroke="black" d="M1935.67,-266.02C1935.67,-283.37 1935.67,-307 1935.67,-307 1935.67,-307 1836.97,-307 1836.97,-307"/>
<polygon fill="black" stroke="black" points="1836.97,-303.5 1826.97,-307 1836.97,-310.5 1836.97,-303.5"/>
</g>
<!-- ChatModule&#45;&gt;AppModule -->
<g id="edge3" class="edge">
<title>ChatModule&#45;&gt;AppModule</title>
<path fill="none" stroke="black" d="M1964.33,-266.22C1964.33,-286.37 1964.33,-316 1964.33,-316 1964.33,-316 1837.05,-316 1837.05,-316"/>
<polygon fill="black" stroke="black" points="1837.05,-312.5 1827.05,-316 1837.05,-319.5 1837.05,-312.5"/>
</g>
<!-- ChatRoomService  -->
<g id="node16" class="node">
<title>ChatRoomService </title>
<polygon fill="#fb8072" stroke="black" points="2178.15,-190 2055.85,-190 2055.85,-154 2178.15,-154 2178.15,-190"/>
<text text-anchor="middle" x="2117" y="-167.8" font-family="Times,serif" font-size="14.00">ChatRoomService </text>
</g>
<!-- ChatModule&#45;&gt;ChatRoomService  -->
<g id="edge16" class="edge">
<title>ChatModule&#45;&gt;ChatRoomService </title>
<path fill="none" stroke="black" stroke-dasharray="5,2" d="M1964.33,-229.92C1964.33,-228.15 1964.33,-227 1964.33,-227 1964.33,-227 2077.35,-227 2077.35,-227 2077.35,-227 2077.35,-200.01 2077.35,-200.01"/>
<polygon fill="black" stroke="black" points="2080.85,-200.01 2077.35,-190.01 2073.85,-200.01 2080.85,-200.01"/>
</g>
<!-- MessageModule -->
<g id="node3" class="node">
<title>MessageModule</title>
<polygon fill="#8dd3c7" stroke="black" points="1647.03,-266 1644.03,-270 1623.03,-270 1620.03,-266 1538.97,-266 1538.97,-230 1647.03,-230 1647.03,-266"/>
<text text-anchor="middle" x="1593" y="-243.8" font-family="Times,serif" font-size="14.00">MessageModule</text>
</g>
<!-- MessageModule&#45;&gt;AppModule -->
<g id="edge4" class="edge">
<title>MessageModule&#45;&gt;AppModule</title>
<path fill="none" stroke="black" d="M1593,-266.02C1593,-283.37 1593,-307 1593,-307 1593,-307 1733.34,-307 1733.34,-307"/>
<polygon fill="black" stroke="black" points="1733.34,-310.5 1743.34,-307 1733.34,-303.5 1733.34,-310.5"/>
</g>
<!-- MessageService  -->
<g id="node25" class="node">
<title>MessageService </title>
<polygon fill="#fb8072" stroke="black" points="306.46,-190 195.54,-190 195.54,-154 306.46,-154 306.46,-190"/>
<text text-anchor="middle" x="251" y="-167.8" font-family="Times,serif" font-size="14.00">MessageService </text>
</g>
<!-- MessageModule&#45;&gt;MessageService  -->
<g id="edge23" class="edge">
<title>MessageModule&#45;&gt;MessageService </title>
<path fill="none" stroke="black" stroke-dasharray="5,2" d="M1593,-229.84C1593,-224.96 1593,-221 1593,-221 1593,-221 251,-221 251,-221 251,-221 251,-200.25 251,-200.25"/>
<polygon fill="black" stroke="black" points="254.5,-200.25 251,-190.25 247.5,-200.25 254.5,-200.25"/>
</g>
<!-- PaginationModule -->
<g id="node4" class="node">
<title>PaginationModule</title>
<polygon fill="#8dd3c7" stroke="black" points="1784.93,-266 1781.93,-270 1760.93,-270 1757.93,-266 1665.07,-266 1665.07,-230 1784.93,-230 1784.93,-266"/>
<text text-anchor="middle" x="1725" y="-243.8" font-family="Times,serif" font-size="14.00">PaginationModule</text>
</g>
<!-- PaginationModule&#45;&gt;AppModule -->
<g id="edge5" class="edge">
<title>PaginationModule&#45;&gt;AppModule</title>
<path fill="none" stroke="black" d="M1763.94,-266.22C1763.94,-266.22 1763.94,-287.73 1763.94,-287.73"/>
<polygon fill="black" stroke="black" points="1760.44,-287.73 1763.94,-297.73 1767.44,-287.73 1760.44,-287.73"/>
</g>
<!-- PaginationProvider  -->
<g id="node27" class="node">
<title>PaginationProvider </title>
<polygon fill="#fb8072" stroke="black" points="669.59,-190 542.41,-190 542.41,-154 669.59,-154 669.59,-190"/>
<text text-anchor="middle" x="606" y="-167.8" font-family="Times,serif" font-size="14.00">PaginationProvider </text>
</g>
<!-- PaginationModule&#45;&gt;PaginationProvider  -->
<g id="edge26" class="edge">
<title>PaginationModule&#45;&gt;PaginationProvider </title>
<path fill="none" stroke="black" stroke-dasharray="5,2" d="M1690.71,-229.96C1690.71,-222.25 1690.71,-215 1690.71,-215 1690.71,-215 606,-215 606,-215 606,-215 606,-200.49 606,-200.49"/>
<polygon fill="black" stroke="black" points="609.5,-200.49 606,-190.49 602.5,-200.49 609.5,-200.49"/>
</g>
<!-- UserModule -->
<g id="node5" class="node">
<title>UserModule</title>
<polygon fill="#8dd3c7" stroke="black" points="1888.98,-266 1885.98,-270 1864.98,-270 1861.98,-266 1803.02,-266 1803.02,-230 1888.98,-230 1888.98,-266"/>
<text text-anchor="middle" x="1846" y="-243.8" font-family="Times,serif" font-size="14.00">UserModule</text>
</g>
<!-- UserModule&#45;&gt;AppModule -->
<g id="edge6" class="edge">
<title>UserModule&#45;&gt;AppModule</title>
<path fill="none" stroke="black" d="M1814.92,-266.22C1814.92,-266.22 1814.92,-287.73 1814.92,-287.73"/>
<polygon fill="black" stroke="black" points="1811.42,-287.73 1814.92,-297.73 1818.42,-287.73 1811.42,-287.73"/>
</g>
<!-- UserService  -->
<g id="node29" class="node">
<title>UserService </title>
<polygon fill="#fb8072" stroke="black" points="1827.9,-190 1740.1,-190 1740.1,-154 1827.9,-154 1827.9,-190"/>
<text text-anchor="middle" x="1784" y="-167.8" font-family="Times,serif" font-size="14.00">UserService </text>
</g>
<!-- UserModule&#45;&gt;UserService  -->
<g id="edge29" class="edge">
<title>UserModule&#45;&gt;UserService </title>
<path fill="none" stroke="black" stroke-dasharray="5,2" d="M1824.39,-229.99C1824.39,-229.99 1824.39,-200.15 1824.39,-200.15"/>
<polygon fill="black" stroke="black" points="1827.89,-200.15 1824.39,-190.15 1820.89,-200.15 1827.89,-200.15"/>
</g>
<!-- WebSocketModule -->
<g id="node6" class="node">
<title>WebSocketModule</title>
<polygon fill="#8dd3c7" stroke="black" points="1521.08,-266 1518.08,-270 1497.08,-270 1494.08,-266 1396.92,-266 1396.92,-230 1521.08,-230 1521.08,-266"/>
<text text-anchor="middle" x="1459" y="-243.8" font-family="Times,serif" font-size="14.00">WebSocketModule</text>
</g>
<!-- WebSocketModule&#45;&gt;AppModule -->
<g id="edge7" class="edge">
<title>WebSocketModule&#45;&gt;AppModule</title>
<path fill="none" stroke="black" d="M1459,-266.22C1459,-286.37 1459,-316 1459,-316 1459,-316 1733.05,-316 1733.05,-316"/>
<polygon fill="black" stroke="black" points="1733.05,-319.5 1743.05,-316 1733.05,-312.5 1733.05,-319.5"/>
</g>
<!-- AppService -->
<g id="node8" class="node">
<title>AppService</title>
<ellipse fill="#fdb462" stroke="black" cx="1316" cy="-248" rx="56.74" ry="18"/>
<text text-anchor="middle" x="1316" y="-243.8" font-family="Times,serif" font-size="14.00">AppService</text>
</g>
<!-- AppService&#45;&gt;AppModule -->
<g id="edge8" class="edge">
<title>AppService&#45;&gt;AppModule</title>
<path fill="none" stroke="black" d="M1316,-266.25C1316,-289.02 1316,-325 1316,-325 1316,-325 1732.97,-325 1732.97,-325"/>
<polygon fill="black" stroke="black" points="1732.97,-328.5 1742.97,-325 1732.97,-321.5 1732.97,-328.5"/>
</g>
<!-- AuthService -->
<g id="node11" class="node">
<title>AuthService</title>
<ellipse fill="#fdb462" stroke="black" cx="2915" cy="-172" rx="59.11" ry="18"/>
<text text-anchor="middle" x="2915" y="-167.8" font-family="Times,serif" font-size="14.00">AuthService</text>
</g>
<!-- AuthService&#45;&gt;AuthModule -->
<g id="edge11" class="edge">
<title>AuthService&#45;&gt;AuthModule</title>
<path fill="none" stroke="black" d="M2915,-190.38C2915,-214.28 2915,-253 2915,-253 2915,-253 2108.83,-253 2108.83,-253"/>
<polygon fill="black" stroke="black" points="2108.83,-249.5 2098.83,-253 2108.83,-256.5 2108.83,-249.5"/>
</g>
<!-- GenerateTokensProvider -->
<g id="node12" class="node">
<title>GenerateTokensProvider</title>
<ellipse fill="#fdb462" stroke="black" cx="2730" cy="-172" rx="107.63" ry="18"/>
<text text-anchor="middle" x="2730" y="-167.8" font-family="Times,serif" font-size="14.00">GenerateTokensProvider</text>
</g>
<!-- GenerateTokensProvider&#45;&gt;AuthModule -->
<g id="edge12" class="edge">
<title>GenerateTokensProvider&#45;&gt;AuthModule</title>
<path fill="none" stroke="black" d="M2730,-190.01C2730,-212.49 2730,-248 2730,-248 2730,-248 2108.77,-248 2108.77,-248"/>
<polygon fill="black" stroke="black" points="2108.77,-244.5 2098.77,-248 2108.77,-251.5 2108.77,-244.5"/>
</g>
<!-- GoogleAuthenticationService -->
<g id="node13" class="node">
<title>GoogleAuthenticationService</title>
<ellipse fill="#fdb462" stroke="black" cx="3342" cy="-172" rx="125.62" ry="18"/>
<text text-anchor="middle" x="3342" y="-167.8" font-family="Times,serif" font-size="14.00">GoogleAuthenticationService</text>
</g>
<!-- GoogleAuthenticationService&#45;&gt;AuthModule -->
<g id="edge13" class="edge">
<title>GoogleAuthenticationService&#45;&gt;AuthModule</title>
<path fill="none" stroke="black" d="M3236.41,-181.98C3236.41,-205.41 3236.41,-262 3236.41,-262 3236.41,-262 2108.8,-262 2108.8,-262"/>
<polygon fill="black" stroke="black" points="2108.8,-258.5 2098.8,-262 2108.8,-265.5 2108.8,-258.5"/>
</g>
<!-- GoogleAuthticationModule -->
<g id="node21" class="node">
<title>GoogleAuthticationModule</title>
<polygon fill="#8dd3c7" stroke="black" points="3427.25,-266 3424.25,-270 3403.25,-270 3400.25,-266 3256.75,-266 3256.75,-230 3427.25,-230 3427.25,-266"/>
<text text-anchor="middle" x="3342" y="-243.8" font-family="Times,serif" font-size="14.00">GoogleAuthticationModule</text>
</g>
<!-- GoogleAuthenticationService&#45;&gt;GoogleAuthticationModule -->
<g id="edge20" class="edge">
<title>GoogleAuthenticationService&#45;&gt;GoogleAuthticationModule</title>
<path fill="none" stroke="black" d="M3342,-190.01C3342,-190.01 3342,-219.85 3342,-219.85"/>
<polygon fill="black" stroke="black" points="3338.5,-219.85 3342,-229.85 3345.5,-219.85 3338.5,-219.85"/>
</g>
<!-- RefreshTokensProvider -->
<g id="node14" class="node">
<title>RefreshTokensProvider</title>
<ellipse fill="#fdb462" stroke="black" cx="3095" cy="-172" rx="102.99" ry="18"/>
<text text-anchor="middle" x="3095" y="-167.8" font-family="Times,serif" font-size="14.00">RefreshTokensProvider</text>
</g>
<!-- RefreshTokensProvider&#45;&gt;AuthModule -->
<g id="edge14" class="edge">
<title>RefreshTokensProvider&#45;&gt;AuthModule</title>
<path fill="none" stroke="black" d="M3095,-190.03C3095,-214.98 3095,-257 3095,-257 3095,-257 2108.69,-257 2108.69,-257"/>
<polygon fill="black" stroke="black" points="2108.69,-253.5 2098.69,-257 2108.69,-260.5 2108.69,-253.5"/>
</g>
<!-- SignInProvider -->
<g id="node15" class="node">
<title>SignInProvider</title>
<ellipse fill="#fdb462" stroke="black" cx="2534" cy="-172" rx="70.08" ry="18"/>
<text text-anchor="middle" x="2534" y="-167.8" font-family="Times,serif" font-size="14.00">SignInProvider</text>
</g>
<!-- SignInProvider&#45;&gt;AuthModule -->
<g id="edge15" class="edge">
<title>SignInProvider&#45;&gt;AuthModule</title>
<path fill="none" stroke="black" d="M2534,-190.17C2534,-211.5 2534,-244 2534,-244 2534,-244 2108.78,-244 2108.78,-244"/>
<polygon fill="black" stroke="black" points="2108.78,-240.5 2098.78,-244 2108.78,-247.5 2108.78,-240.5"/>
</g>
<!-- ChatRoomService -->
<g id="node17" class="node">
<title>ChatRoomService</title>
<ellipse fill="#fdb462" stroke="black" cx="1950" cy="-172" rx="81.68" ry="18"/>
<text text-anchor="middle" x="1950" y="-167.8" font-family="Times,serif" font-size="14.00">ChatRoomService</text>
</g>
<!-- ChatRoomService&#45;&gt;ChatModule -->
<g id="edge17" class="edge">
<title>ChatRoomService&#45;&gt;ChatModule</title>
<path fill="none" stroke="black" d="M1935.67,-190.01C1935.67,-190.01 1935.67,-219.85 1935.67,-219.85"/>
<polygon fill="black" stroke="black" points="1932.17,-219.85 1935.67,-229.85 1939.17,-219.85 1932.17,-219.85"/>
</g>
<!-- CloudinaryService  -->
<g id="node18" class="node">
<title>CloudinaryService </title>
<polygon fill="#fb8072" stroke="black" points="3653.47,-334 3528.53,-334 3528.53,-298 3653.47,-298 3653.47,-334"/>
<text text-anchor="middle" x="3591" y="-311.8" font-family="Times,serif" font-size="14.00">CloudinaryService </text>
</g>
<!-- CloudinaryModule -->
<g id="node19" class="node">
<title>CloudinaryModule</title>
<polygon fill="#8dd3c7" stroke="black" points="3652.04,-266 3649.04,-270 3628.04,-270 3625.04,-266 3529.96,-266 3529.96,-230 3652.04,-230 3652.04,-266"/>
<text text-anchor="middle" x="3591" y="-243.8" font-family="Times,serif" font-size="14.00">CloudinaryModule</text>
</g>
<!-- CloudinaryModule&#45;&gt;CloudinaryService  -->
<g id="edge18" class="edge">
<title>CloudinaryModule&#45;&gt;CloudinaryService </title>
<path fill="none" stroke="black" stroke-dasharray="5,2" d="M3591,-266.22C3591,-266.22 3591,-287.73 3591,-287.73"/>
<polygon fill="black" stroke="black" points="3587.5,-287.73 3591,-297.73 3594.5,-287.73 3587.5,-287.73"/>
</g>
<!-- CloudinaryService -->
<g id="node20" class="node">
<title>CloudinaryService</title>
<ellipse fill="#fdb462" stroke="black" cx="3591" cy="-172" rx="83.39" ry="18"/>
<text text-anchor="middle" x="3591" y="-167.8" font-family="Times,serif" font-size="14.00">CloudinaryService</text>
</g>
<!-- CloudinaryService&#45;&gt;MessageModule -->
<g id="edge24" class="edge">
<title>CloudinaryService&#45;&gt;MessageModule</title>
<path fill="none" stroke="black" d="M3518.16,-180.95C3518.16,-187.04 3518.16,-194 3518.16,-194 3518.16,-194 1620.13,-194 1620.13,-194 1620.13,-194 1620.13,-219.72 1620.13,-219.72"/>
<polygon fill="black" stroke="black" points="1616.63,-219.72 1620.13,-229.72 1623.63,-219.72 1616.63,-219.72"/>
</g>
<!-- CloudinaryService&#45;&gt;CloudinaryModule -->
<g id="edge19" class="edge">
<title>CloudinaryService&#45;&gt;CloudinaryModule</title>
<path fill="none" stroke="black" d="M3591,-190.01C3591,-190.01 3591,-219.85 3591,-219.85"/>
<polygon fill="black" stroke="black" points="3587.5,-219.85 3591,-229.85 3594.5,-219.85 3587.5,-219.85"/>
</g>
<!-- MailProvider  -->
<g id="node22" class="node">
<title>MailProvider </title>
<polygon fill="#fb8072" stroke="black" points="3816.15,-266 3721.85,-266 3721.85,-230 3816.15,-230 3816.15,-266"/>
<text text-anchor="middle" x="3769" y="-243.8" font-family="Times,serif" font-size="14.00">MailProvider </text>
</g>
<!-- MailModule -->
<g id="node23" class="node">
<title>MailModule</title>
<polygon fill="#8dd3c7" stroke="black" points="3811.99,-190 3808.99,-194 3787.99,-194 3784.99,-190 3726.01,-190 3726.01,-154 3811.99,-154 3811.99,-190"/>
<text text-anchor="middle" x="3769" y="-167.8" font-family="Times,serif" font-size="14.00">MailModule</text>
</g>
<!-- MailModule&#45;&gt;UserModule -->
<g id="edge28" class="edge">
<title>MailModule&#45;&gt;UserModule</title>
<path fill="none" stroke="black" d="M3754.67,-190.17C3754.67,-194.05 3754.67,-197 3754.67,-197 3754.67,-197 1878.57,-197 1878.57,-197 1878.57,-197 1878.57,-219.88 1878.57,-219.88"/>
<polygon fill="black" stroke="black" points="1875.07,-219.88 1878.57,-229.88 1882.07,-219.88 1875.07,-219.88"/>
</g>
<!-- MailModule&#45;&gt;MailProvider  -->
<g id="edge21" class="edge">
<title>MailModule&#45;&gt;MailProvider </title>
<path fill="none" stroke="black" stroke-dasharray="5,2" d="M3783.33,-190.01C3783.33,-190.01 3783.33,-219.85 3783.33,-219.85"/>
<polygon fill="black" stroke="black" points="3779.83,-219.85 3783.33,-229.85 3786.83,-219.85 3779.83,-219.85"/>
</g>
<!-- MailProvider -->
<g id="node24" class="node">
<title>MailProvider</title>
<ellipse fill="#fdb462" stroke="black" cx="3777" cy="-104" rx="62.56" ry="18"/>
<text text-anchor="middle" x="3777" y="-99.8" font-family="Times,serif" font-size="14.00">MailProvider</text>
</g>
<!-- MailProvider&#45;&gt;MailModule -->
<g id="edge22" class="edge">
<title>MailProvider&#45;&gt;MailModule</title>
<path fill="none" stroke="black" d="M3769,-121.87C3769,-121.87 3769,-143.54 3769,-143.54"/>
<polygon fill="black" stroke="black" points="3765.5,-143.54 3769,-153.54 3772.5,-143.54 3765.5,-143.54"/>
</g>
<!-- MessageService -->
<g id="node26" class="node">
<title>MessageService</title>
<ellipse fill="#fdb462" stroke="black" cx="98" cy="-172" rx="73.55" ry="18"/>
<text text-anchor="middle" x="98" y="-167.8" font-family="Times,serif" font-size="14.00">MessageService</text>
</g>
<!-- MessageService&#45;&gt;MessageModule -->
<g id="edge25" class="edge">
<title>MessageService&#45;&gt;MessageModule</title>
<path fill="none" stroke="black" d="M98,-190.19C98,-205.18 98,-224 98,-224 98,-224 1565.87,-224 1565.87,-224 1565.87,-224 1565.87,-224.58 1565.87,-224.58"/>
<polygon fill="black" stroke="black" points="1562.37,-219.81 1565.87,-229.81 1569.37,-219.81 1562.37,-219.81"/>
</g>
<!-- PaginationProvider -->
<g id="node28" class="node">
<title>PaginationProvider</title>
<ellipse fill="#fdb462" stroke="black" cx="432" cy="-172" rx="85.69" ry="18"/>
<text text-anchor="middle" x="432" y="-167.8" font-family="Times,serif" font-size="14.00">PaginationProvider</text>
</g>
<!-- PaginationProvider&#45;&gt;PaginationModule -->
<g id="edge27" class="edge">
<title>PaginationProvider&#45;&gt;PaginationModule</title>
<path fill="none" stroke="black" d="M432,-190.18C432,-203.04 432,-218 432,-218 432,-218 1678,-218 1678,-218 1678,-218 1678,-219.86 1678,-219.86"/>
<polygon fill="black" stroke="black" points="1674.5,-219.86 1678,-229.86 1681.5,-219.86 1674.5,-219.86"/>
</g>
<!-- CreateGoogleUserProvider -->
<g id="node30" class="node">
<title>CreateGoogleUserProvider</title>
<ellipse fill="#fdb462" stroke="black" cx="1600" cy="-172" rx="116.29" ry="18"/>
<text text-anchor="middle" x="1600" y="-167.8" font-family="Times,serif" font-size="14.00">CreateGoogleUserProvider</text>
</g>
<!-- CreateGoogleUserProvider&#45;&gt;UserModule -->
<g id="edge30" class="edge">
<title>CreateGoogleUserProvider&#45;&gt;UserModule</title>
<path fill="none" stroke="black" d="M1703.43,-180.25C1703.43,-188.51 1703.43,-200 1703.43,-200 1703.43,-200 1820.83,-200 1820.83,-200 1820.83,-200 1820.83,-219.85 1820.83,-219.85"/>
<polygon fill="black" stroke="black" points="1817.33,-219.85 1820.83,-229.85 1824.33,-219.85 1817.33,-219.85"/>
</g>
<!-- CreateUserProvider -->
<g id="node31" class="node">
<title>CreateUserProvider</title>
<ellipse fill="#fdb462" stroke="black" cx="1378" cy="-172" rx="87.94" ry="18"/>
<text text-anchor="middle" x="1378" y="-167.8" font-family="Times,serif" font-size="14.00">CreateUserProvider</text>
</g>
<!-- CreateUserProvider&#45;&gt;UserModule -->
<g id="edge31" class="edge">
<title>CreateUserProvider&#45;&gt;UserModule</title>
<path fill="none" stroke="black" d="M1431.34,-186.41C1431.34,-194.51 1431.34,-203 1431.34,-203 1431.34,-203 1817.26,-203 1817.26,-203 1817.26,-203 1817.26,-219.96 1817.26,-219.96"/>
<polygon fill="black" stroke="black" points="1813.76,-219.96 1817.26,-229.96 1820.76,-219.96 1813.76,-219.96"/>
</g>
<!-- FindOneByEmail -->
<g id="node32" class="node">
<title>FindOneByEmail</title>
<ellipse fill="#fdb462" stroke="black" cx="1193" cy="-172" rx="79.33" ry="18"/>
<text text-anchor="middle" x="1193" y="-167.8" font-family="Times,serif" font-size="14.00">FindOneByEmail</text>
</g>
<!-- FindOneByEmail&#45;&gt;UserModule -->
<g id="edge32" class="edge">
<title>FindOneByEmail&#45;&gt;UserModule</title>
<path fill="none" stroke="black" d="M1265.77,-179.21C1265.77,-189.19 1265.77,-206 1265.77,-206 1265.77,-206 1813.7,-206 1813.7,-206 1813.7,-206 1813.7,-219.94 1813.7,-219.94"/>
<polygon fill="black" stroke="black" points="1810.2,-219.94 1813.7,-229.94 1817.2,-219.94 1810.2,-219.94"/>
</g>
<!-- FindOneByGoogleIdProvider -->
<g id="node33" class="node">
<title>FindOneByGoogleIdProvider</title>
<ellipse fill="#fdb462" stroke="black" cx="970" cy="-172" rx="125.65" ry="18"/>
<text text-anchor="middle" x="970" y="-167.8" font-family="Times,serif" font-size="14.00">FindOneByGoogleIdProvider</text>
</g>
<!-- FindOneByGoogleIdProvider&#45;&gt;UserModule -->
<g id="edge33" class="edge">
<title>FindOneByGoogleIdProvider&#45;&gt;UserModule</title>
<path fill="none" stroke="black" d="M970,-190.07C970,-199.46 970,-209 970,-209 970,-209 1810.14,-209 1810.14,-209 1810.14,-209 1810.14,-219.87 1810.14,-219.87"/>
<polygon fill="black" stroke="black" points="1806.64,-219.87 1810.14,-229.87 1813.64,-219.87 1806.64,-219.87"/>
</g>
<!-- UserService -->
<g id="node34" class="node">
<title>UserService</title>
<ellipse fill="#fdb462" stroke="black" cx="768" cy="-172" rx="58.44" ry="18"/>
<text text-anchor="middle" x="768" y="-167.8" font-family="Times,serif" font-size="14.00">UserService</text>
</g>
<!-- UserService&#45;&gt;UserModule -->
<g id="edge34" class="edge">
<title>UserService&#45;&gt;UserModule</title>
<path fill="none" stroke="black" d="M768,-190.13C768,-200.71 768,-212 768,-212 768,-212 1806.57,-212 1806.57,-212 1806.57,-212 1806.57,-219.58 1806.57,-219.58"/>
<polygon fill="black" stroke="black" points="1803.07,-219.58 1806.57,-229.58 1810.07,-219.58 1803.07,-219.58"/>
</g>
</g>
</svg>
